<svg width="26" height="36" viewBox="0 0 26 36" fill="none" xmlns="http://www.w3.org/2000/svg">
<path d="M0.75 8.1C0.75 5.86667 1.71667 4.03333 3.65 2.6C5.58333 1.16667 8.48333 0.449999 12.35 0.449999C16.2167 0.449999 19.1833 1.16667 21.25 2.6C23.35 4.03333 24.4 6.18333 24.4 9.05C24.4 9.98333 24.3167 10.8333 24.15 11.6C23.9833 12.3333 23.6 13.1167 23 13.95C22.4333 14.75 21.8667 15.4667 21.3 16.1C20.7667 16.7333 19.8333 17.5667 18.5 18.6C16.5 20.2 14.4 21.8 12.2 23.4C10 24.9667 8.71667 25.8833 8.35 26.15L5.3 28.35H17.3C19.6 28.35 21.2333 27.85 22.2 26.85C23.1667 25.85 23.85 24.2833 24.25 22.15H25.1L24.6 36H1.1V30.2L6.15 25.55C9.58333 22.4167 12.0167 19.6333 13.45 17.2C14.8833 14.7333 15.6 12.0333 15.6 9.1C15.6 6.13333 15.2833 4.11666 14.65 3.05C14.0167 1.95 12.95 1.4 11.45 1.4C9.95 1.4 8.9 1.78333 8.3 2.55C7.7 3.31667 7.4 4.05 7.4 4.75C7.4 5.45 7.5 6.06667 7.7 6.6H9.2C9.46667 7.3 9.6 8.15 9.6 9.15C9.6 10.1167 9.18333 10.9667 8.35 11.7C7.51667 12.4 6.41667 12.75 5.05 12.75C3.68333 12.75 2.61667 12.3167 1.85 11.45C1.11667 10.55 0.75 9.43333 0.75 8.1Z" fill="black"/>
</svg>
