<svg width="27" height="37" viewBox="0 0 27 37" fill="none" xmlns="http://www.w3.org/2000/svg">
<path d="M1.1 8.1C1.1 5.9 2.1 4.08333 4.1 2.65C6.1 1.18333 9.06667 0.449999 13 0.449999C20.6 0.449999 24.4 3.1 24.4 8.4C24.4 10.5667 23.5 12.3667 21.7 13.8C19.9333 15.2 17.3833 16.1833 14.05 16.75V16.85C18.1833 17.15 21.2333 18.1167 23.2 19.75C25.1667 21.3833 26.15 23.5 26.15 26.1C26.15 29.3 24.85 31.8333 22.25 33.7C19.6833 35.5667 16.1 36.5 11.5 36.5C9.7 36.5 8.01667 36.3 6.45 35.9C4.91667 35.5 3.53333 34.7167 2.3 33.55C1.1 32.35 0.5 30.9333 0.5 29.3C0.5 27.6667 0.883333 26.4 1.65 25.5C2.45 24.6 3.53333 24.15 4.9 24.15C6.26667 24.15 7.35 24.5167 8.15 25.25C8.95 25.95 9.35 26.8 9.35 27.8C9.35 28.7667 9.21667 29.6 8.95 30.3H7.4C7.2 30.8333 7.1 31.3833 7.1 31.95C7.1 34.3167 8.5 35.5 11.3 35.5C13.2667 35.5 14.6 34.75 15.3 33.25C16.0333 31.75 16.4 29.5833 16.4 26.75C16.4 23.9167 16.05 21.8667 15.35 20.6C14.6833 19.3 13.6833 18.3167 12.35 17.65C11.15 17.9167 9.7 18.1333 8 18.3L7.85 17.2C10.7833 16.9 12.7 16.2 13.6 15.1C14.5333 14 15 12.05 15 9.25C15 6.41667 14.7167 4.4 14.15 3.2C13.6167 1.96667 12.7 1.35 11.4 1.35C10.1 1.35 9.16667 1.75 8.6 2.55C8.06667 3.31667 7.8 4.05 7.8 4.75C7.8 5.45 7.9 6.06667 8.1 6.6H9.55C9.81667 7.3 9.95 8.15 9.95 9.15C9.95 10.1167 9.53333 10.9667 8.7 11.7C7.86667 12.4 6.76667 12.75 5.4 12.75C4.03333 12.75 2.96667 12.3167 2.2 11.45C1.46667 10.55 1.1 9.43333 1.1 8.1Z" fill="black"/>
</svg>
