<svg width="188" height="380" viewBox="0 0 188 380" fill="none" xmlns="http://www.w3.org/2000/svg">
<g clip-path="url(#clip0_354_1166)">
<path d="M116.377 330.8C122.941 334.111 130.629 334.703 136.897 330.327C143.579 325.596 146.418 314.301 141.687 307.087C137.488 300.7 128.973 299.399 121.995 299.577C121.995 299.577 122.527 281.659 143.461 283.196C143.461 283.196 177.759 284.202 174.152 337.955C174.152 337.541 176.458 334.999 176.813 334.466C178.824 331.036 180.538 327.193 181.544 323.349C188.403 297.803 174.388 266.106 146.477 261.731C121.463 257.828 95.4435 272.079 96.094 299.932C96.3305 308.802 99.8195 317.317 106.029 323.586C108.867 326.483 112.77 329.026 116.377 330.859V330.8Z" fill="white" fill-opacity="0.5"/>
<path d="M191.242 339.138V284.97C196.682 265.101 218.976 245.35 238.431 245.35C216.078 245.35 190 219.272 190 196.919C190 219.272 163.922 245.35 141.569 245.35C161.024 245.35 183.318 265.101 188.758 284.97V339.138L177.463 350.433L190.059 379.941L202.655 350.433L191.36 339.138H191.242Z" fill="white" fill-opacity="0.5"/>
<path d="M181.603 56.7103C180.538 52.8665 178.883 49.0228 176.872 45.593C176.576 45.0607 174.27 42.5179 174.211 42.104C177.818 95.7984 143.52 96.8628 143.52 96.8628C122.527 98.4003 122.054 80.4825 122.054 80.4825C129.032 80.6007 137.607 79.2998 141.746 72.9724C146.477 65.7579 143.638 54.404 136.956 49.7324C130.688 45.2973 123 45.8886 116.436 49.2593C112.829 51.0925 108.926 53.6353 106.088 56.5329C99.8786 62.8603 96.3305 71.3166 96.1531 80.1868C95.5026 108.039 121.522 122.35 146.536 118.388C174.447 114.012 188.522 82.3156 181.603 56.7694V56.7103Z" fill="white" fill-opacity="0.5"/>
<path d="M188.758 40.8621V95.0295C183.318 114.899 161.024 134.65 141.569 134.65C163.922 134.65 190 160.728 190 183.081C190 160.728 216.078 134.65 238.431 134.65C218.976 134.65 196.682 114.899 191.242 95.0295V40.8621L202.537 29.5673L189.941 0.059082L177.345 29.5673L188.64 40.8621H188.758Z" fill="white" fill-opacity="0.5"/>
<path d="M56.7103 198.397C52.8665 199.462 49.0228 201.117 45.593 203.128C45.0607 203.424 42.5179 205.73 42.104 205.789C95.7984 202.182 96.8628 236.48 96.8628 236.48C98.4003 257.473 80.4825 257.946 80.4825 257.946C80.6007 250.968 79.2998 242.393 72.9724 238.254C65.7579 233.523 54.404 236.362 49.7324 243.044C45.2973 249.312 45.8886 257 49.2593 263.564C51.0925 267.171 53.6353 271.074 56.5329 273.912C62.8603 280.121 71.3166 283.67 80.1868 283.847C108.039 284.497 122.35 258.478 118.388 233.464C114.012 205.553 82.3156 191.478 56.7694 198.397H56.7103Z" fill="white" fill-opacity="0.5"/>
<path d="M49.1409 116.436C45.8294 123 45.238 130.688 49.614 136.956C54.3448 143.638 65.6395 146.477 72.8539 141.746C79.2405 137.547 80.5415 129.032 80.3641 122.054C80.3641 122.054 98.2819 122.586 96.7444 143.52C96.7444 143.52 95.7391 177.818 41.9856 174.211C42.3995 174.211 44.9423 176.517 45.4745 176.872C48.9044 178.883 52.7481 180.598 56.5919 181.603C82.1381 188.462 113.834 174.447 118.21 146.536C122.113 121.522 107.862 95.5026 80.0092 96.1531C71.139 96.3896 62.6236 99.8786 56.3553 106.088C53.4577 108.926 50.9149 112.829 49.0818 116.436H49.1409Z" fill="white" fill-opacity="0.5"/>
<path d="M40.8621 191.242H95.0295C114.899 196.682 134.65 218.976 134.65 238.431C134.65 216.078 160.728 190 183.081 190C160.728 190 134.65 163.922 134.65 141.569C134.65 161.024 114.899 183.318 95.0295 188.758H40.8621L29.5673 177.463L0.059082 190.059L29.5673 202.655L40.8621 191.36V191.242Z" fill="white" fill-opacity="0.5"/>
</g>
<defs>
<clipPath id="clip0_354_1166">
<rect width="380" height="380" fill="white"/>
</clipPath>
</defs>
</svg>
