<svg width="592" height="592" viewBox="0 0 592 592" fill="none" xmlns="http://www.w3.org/2000/svg">
<g opacity="0.5" clip-path="url(#clip0_312_170)">
<path d="M309.081 503.559C310.739 509.547 313.319 515.536 316.451 520.879C316.912 521.708 320.505 525.669 320.597 526.314C314.977 442.664 368.41 441.006 368.41 441.006C401.115 438.611 401.852 466.525 401.852 466.525C390.981 466.34 377.623 468.367 371.174 478.225C363.804 489.464 368.226 507.152 378.636 514.43C388.401 521.34 400.378 520.418 410.604 515.167C416.223 512.311 422.304 508.35 426.726 503.836C436.399 493.978 441.926 480.804 442.203 466.985C443.216 423.594 402.681 401.3 363.712 407.472C320.228 414.289 298.302 463.669 309.081 503.467V503.559Z" fill="#003049"/>
<path d="M181.303 515.351C191.529 520.51 203.505 521.432 213.27 514.614C223.681 507.244 228.103 489.648 220.733 478.409C214.192 468.459 200.926 466.433 190.055 466.709C190.055 466.709 190.884 438.795 223.496 441.19C223.496 441.19 276.929 442.756 271.31 526.499C271.31 525.854 274.903 521.892 275.455 521.063C278.588 515.72 281.259 509.732 282.825 503.744C293.512 463.945 271.678 414.566 228.195 407.749C189.226 401.668 148.69 423.871 149.704 467.262C150.072 481.081 155.508 494.347 165.181 504.112C169.603 508.626 175.683 512.588 181.303 515.444V515.351Z" fill="#003049"/>
<path d="M297.934 528.341V443.954C306.41 413 341.141 382.23 371.45 382.23C336.627 382.23 295.999 341.602 295.999 306.779C295.999 341.602 255.372 382.23 220.548 382.23C250.858 382.23 285.589 413 294.065 443.954V528.341L276.469 545.937L296.091 591.908L315.714 545.937L298.118 528.341H297.934Z" fill="#003049"/>
<path d="M282.918 88.3486C281.259 82.3604 278.68 76.3722 275.548 71.0289C275.087 70.1998 271.494 66.2384 271.402 65.5935C277.022 149.244 223.589 150.902 223.589 150.902C190.884 153.297 190.147 125.383 190.147 125.383C201.018 125.567 214.376 123.541 220.825 113.683C228.195 102.444 223.773 84.7557 213.363 77.4777C203.597 70.5683 191.621 71.4896 181.395 76.7407C175.775 79.5966 169.695 83.558 165.273 88.0722C155.6 97.9296 150.072 111.104 149.796 124.922C148.783 168.314 189.318 190.608 228.287 184.436C271.77 177.618 293.696 128.239 282.918 88.4407V88.3486Z" fill="#003049"/>
<path d="M410.604 76.5565C400.378 71.3975 388.402 70.4762 378.637 77.2935C368.226 84.6636 363.804 102.26 371.174 113.499C377.715 123.449 390.981 125.475 401.852 125.199C401.852 125.199 401.023 153.113 368.411 150.718C368.411 150.718 314.978 149.152 320.597 65.4093C320.597 66.0542 317.004 70.0156 316.452 70.8447C313.319 76.188 310.648 82.1762 309.082 88.1644C298.395 127.963 320.229 177.342 363.712 184.159C402.681 190.24 443.217 168.037 442.203 124.646C441.835 110.827 436.399 97.5612 426.726 87.7959C422.304 83.2817 416.224 79.3203 410.604 76.4644V76.5565Z" fill="#003049"/>
<path d="M294.065 63.6589V148.046C285.589 179 250.858 209.77 220.548 209.77C255.372 209.77 295.999 250.398 295.999 285.221C295.999 250.398 336.627 209.77 371.45 209.77C341.141 209.77 306.41 179 297.934 148.046V63.6589L315.53 46.0629L295.907 0.0921631L276.284 46.0629L293.88 63.6589H294.065Z" fill="#003049"/>
<path d="M503.559 282.918C509.547 281.26 515.535 278.68 520.879 275.548C521.708 275.087 525.669 271.495 526.314 271.402C442.664 277.022 441.006 223.589 441.006 223.589C438.61 190.885 466.524 190.148 466.524 190.148C466.34 201.018 468.367 214.377 478.224 220.825C489.464 228.195 507.152 223.773 514.43 213.363C521.339 203.598 520.418 191.622 515.167 181.396C512.311 175.776 508.35 169.696 503.835 165.274C493.978 155.6 480.804 150.073 466.985 149.796C423.594 148.783 401.299 189.318 407.472 228.288C414.289 271.771 463.669 293.697 503.467 282.918H503.559Z" fill="#003049"/>
<path d="M515.351 410.604C520.51 400.378 521.431 388.402 514.614 378.637C507.244 368.227 489.648 363.805 478.409 371.175C468.459 377.716 466.432 390.982 466.709 401.852C466.709 401.852 438.795 401.023 441.19 368.411C441.19 368.411 442.756 314.978 526.498 320.598C525.853 320.598 521.892 317.005 521.063 316.452C515.72 313.32 509.731 310.648 503.743 309.082C463.945 298.395 414.565 320.229 407.748 363.712C401.668 402.682 423.87 443.217 467.261 442.204C481.08 441.835 494.346 436.4 504.112 426.726C508.626 422.304 512.587 416.224 515.443 410.604H515.351Z" fill="#003049"/>
<path d="M528.341 294.065H443.954C412.999 285.59 382.229 250.858 382.229 220.549C382.229 255.373 341.602 296 306.778 296C341.602 296 382.229 336.627 382.229 371.451C382.229 341.142 412.999 306.41 443.954 297.935H528.341L545.937 315.531L591.907 295.908L545.937 276.285L528.341 293.881V294.065Z" fill="#003049"/>
<path d="M88.3483 309.082C82.3601 310.74 76.372 313.32 71.0287 316.452C70.1996 316.913 66.2381 320.505 65.5933 320.598C149.243 314.978 150.902 368.411 150.902 368.411C153.297 401.116 125.383 401.853 125.383 401.853C125.567 390.982 123.54 377.623 113.683 371.175C102.444 363.805 84.7554 368.227 77.4775 378.637C70.5681 388.402 71.4893 400.379 76.7405 410.604C79.5964 416.224 83.5578 422.304 88.0719 426.726C97.9294 436.4 111.103 441.927 124.922 442.204C168.313 443.217 190.608 402.682 184.435 363.712C177.618 320.229 128.239 298.303 88.4405 309.082H88.3483Z" fill="#003049"/>
<path d="M76.5559 181.396C71.3969 191.622 70.4756 203.598 77.2929 213.363C84.663 223.773 102.259 228.195 113.498 220.825C123.448 214.284 125.475 201.018 125.198 190.148C125.198 190.148 153.112 190.977 150.717 223.589C150.717 223.589 149.151 277.022 65.4087 271.402C66.0536 271.402 70.015 274.995 70.8441 275.548C76.1874 278.68 82.1756 281.352 88.1637 282.918C127.962 293.605 177.341 271.771 184.159 228.288C190.239 189.318 168.037 148.783 124.646 149.796C110.827 150.165 97.5606 155.6 87.7952 165.274C83.2811 169.696 79.3197 175.776 76.4638 181.396H76.5559Z" fill="#003049"/>
<path d="M63.6583 297.935H148.045C179 306.41 209.77 341.142 209.77 371.451C209.77 336.627 250.397 296 285.221 296C250.397 296 209.77 255.373 209.77 220.549C209.77 250.858 179 285.59 148.045 294.065H63.6583L46.0623 276.469L0.0915527 296.092L46.0623 315.715L63.6583 298.119V297.935Z" fill="#003049"/>
</g>
<defs>
<clipPath id="clip0_312_170">
<rect width="592" height="592" fill="white" transform="translate(-0.000488281)"/>
</clipPath>
</defs>
</svg>
