<svg width="378" height="378" viewBox="0 0 378 378" fill="none" xmlns="http://www.w3.org/2000/svg">
<g clip-path="url(#clip0_347_1040)">
<path d="M197.353 321.529C198.412 325.353 200.059 329.176 202.059 332.588C202.353 333.118 204.647 335.647 204.706 336.059C201.118 282.647 235.235 281.588 235.235 281.588C256.118 280.059 256.588 297.882 256.588 297.882C249.647 297.765 241.118 299.059 237 305.353C232.294 312.529 235.118 323.823 241.765 328.47C248 332.882 255.647 332.294 262.176 328.941C265.765 327.118 269.647 324.588 272.471 321.706C278.647 315.412 282.176 307 282.353 298.176C283 270.47 257.118 256.235 232.235 260.176C204.471 264.529 190.471 296.059 197.353 321.47V321.529Z" fill="white" fill-opacity="0.5"/>
<path d="M115.765 329.059C122.294 332.353 129.941 332.941 136.177 328.588C142.824 323.882 145.647 312.647 140.941 305.471C136.765 299.118 128.294 297.824 121.353 298C121.353 298 121.882 280.176 142.706 281.706C142.706 281.706 176.824 282.706 173.235 336.176C173.235 335.765 175.529 333.235 175.882 332.706C177.882 329.294 179.588 325.471 180.588 321.647C187.412 296.235 173.471 264.706 145.706 260.353C120.824 256.471 94.9412 270.647 95.5883 298.353C95.8236 307.176 99.2942 315.647 105.471 321.882C108.294 324.765 112.177 327.294 115.765 329.118V329.059Z" fill="white" fill-opacity="0.5"/>
<path d="M190.235 337.353V283.471C195.647 263.706 217.823 244.059 237.176 244.059C214.941 244.059 189 218.118 189 195.882C189 218.118 163.059 244.059 140.823 244.059C160.176 244.059 182.353 263.706 187.765 283.471V337.353L176.529 348.588L189.059 377.941L201.588 348.588L190.353 337.353H190.235Z" fill="white" fill-opacity="0.5"/>
<path d="M180.647 56.4117C179.588 52.5882 177.941 48.7647 175.941 45.3529C175.647 44.8235 173.353 42.2941 173.294 41.8823C176.882 95.2941 142.765 96.3529 142.765 96.3529C121.882 97.8823 121.412 80.0588 121.412 80.0588C128.353 80.1764 136.882 78.8823 141 72.5882C145.706 65.4117 142.882 54.1176 136.235 49.4706C130 45.0588 122.353 45.647 115.824 49C112.235 50.8235 108.353 53.3529 105.529 56.2353C99.353 62.5294 95.8236 70.9412 95.6471 79.7647C95.0001 107.471 120.882 121.706 145.765 117.765C173.529 113.412 187.529 81.8823 180.647 56.4706V56.4117Z" fill="white" fill-opacity="0.5"/>
<path d="M262.177 48.8823C255.647 45.5882 248 44.9999 241.765 49.3529C235.118 54.0588 232.294 65.2941 237 72.4705C241.177 78.8235 249.647 80.1176 256.588 79.9411C256.588 79.9411 256.059 97.7646 235.235 96.2352C235.235 96.2352 201.118 95.2352 204.706 41.7646C204.706 42.1764 202.412 44.7058 202.059 45.2352C200.059 48.647 198.353 52.4705 197.353 56.2941C190.529 81.7058 204.471 113.235 232.235 117.588C257.118 121.471 283 107.294 282.353 79.5882C282.118 70.7646 278.647 62.2941 272.471 56.0588C269.647 53.1764 265.765 50.647 262.177 48.8235V48.8823Z" fill="white" fill-opacity="0.5"/>
<path d="M187.765 40.6468V94.5292C182.353 114.294 160.176 133.941 140.823 133.941C163.059 133.941 189 159.882 189 182.117C189 159.882 214.941 133.941 237.176 133.941C217.823 133.941 195.647 114.294 190.235 94.5292V40.6468L201.471 29.4115L188.941 0.0585938L176.412 29.4115L187.647 40.6468H187.765Z" fill="white" fill-opacity="0.5"/>
<path d="M321.529 180.647C325.353 179.588 329.176 177.941 332.588 175.941C333.118 175.647 335.647 173.353 336.059 173.294C282.647 176.882 281.588 142.765 281.588 142.765C280.059 121.882 297.882 121.412 297.882 121.412C297.765 128.353 299.059 136.882 305.353 141C312.529 145.706 323.823 142.882 328.47 136.235C332.882 130 332.294 122.353 328.941 115.824C327.118 112.235 324.588 108.353 321.706 105.529C315.412 99.353 307 95.8236 298.176 95.6471C270.47 95.0001 256.235 120.882 260.176 145.765C264.529 173.529 296.059 187.529 321.47 180.647H321.529Z" fill="white" fill-opacity="0.5"/>
<path d="M329.059 262.177C332.353 255.647 332.941 248 328.588 241.765C323.882 235.118 312.647 232.294 305.471 237C299.118 241.177 297.824 249.647 298 256.588C298 256.588 280.176 256.059 281.706 235.235C281.706 235.235 282.706 201.118 336.176 204.706C335.765 204.706 333.235 202.412 332.706 202.059C329.294 200.059 325.471 198.353 321.647 197.353C296.235 190.529 264.706 204.471 260.353 232.235C256.471 257.118 270.647 283 298.353 282.353C307.176 282.118 315.647 278.647 321.882 272.471C324.765 269.647 327.294 265.765 329.118 262.177H329.059Z" fill="white" fill-opacity="0.5"/>
<path d="M337.353 187.765H283.471C263.706 182.353 244.059 160.177 244.059 140.824C244.059 163.059 218.118 189 195.882 189C218.118 189 244.059 214.941 244.059 237.177C244.059 217.824 263.706 195.647 283.471 190.235H337.353L348.588 201.471L377.941 188.941L348.588 176.412L337.353 187.647V187.765Z" fill="white" fill-opacity="0.5"/>
<path d="M56.4117 197.353C52.5882 198.412 48.7647 200.059 45.3529 202.059C44.8235 202.353 42.2941 204.647 41.8823 204.706C95.2941 201.118 96.3529 235.235 96.3529 235.235C97.8823 256.118 80.0588 256.588 80.0588 256.588C80.1764 249.647 78.8823 241.118 72.5882 237C65.4117 232.294 54.1176 235.118 49.4706 241.765C45.0588 248 45.647 255.647 49 262.177C50.8235 265.765 53.3529 269.647 56.2353 272.471C62.5294 278.647 70.9412 282.177 79.7647 282.353C107.471 283 121.706 257.118 117.765 232.235C113.412 204.471 81.8823 190.471 56.4706 197.353H56.4117Z" fill="white" fill-opacity="0.5"/>
<path d="M48.8823 115.824C45.5882 122.353 44.9999 130 49.3529 136.235C54.0588 142.882 65.2941 145.706 72.4705 141C78.8235 136.824 80.1176 128.353 79.9411 121.412C79.9411 121.412 97.7646 121.941 96.2352 142.765C96.2352 142.765 95.2352 176.882 41.7646 173.294C42.1764 173.294 44.7058 175.588 45.2352 175.941C48.647 177.941 52.4705 179.647 56.2941 180.647C81.7058 187.471 113.235 173.53 117.588 145.765C121.471 120.882 107.294 95.0001 79.5882 95.6471C70.7646 95.8824 62.2941 99.353 56.0588 105.529C53.1764 108.353 50.647 112.235 48.8235 115.824H48.8823Z" fill="white" fill-opacity="0.5"/>
<path d="M40.6471 190.235H94.5294C114.294 195.647 133.941 217.824 133.941 237.177C133.941 214.941 159.882 189 182.118 189C159.882 189 133.941 163.059 133.941 140.824C133.941 160.177 114.294 182.353 94.5294 187.765H40.6471L29.4118 176.53L0.0588379 189.059L29.4118 201.588L40.6471 190.353V190.235Z" fill="white" fill-opacity="0.5"/>
</g>
<defs>
<clipPath id="clip0_347_1040">
<rect width="378" height="378" fill="white"/>
</clipPath>
</defs>
</svg>
