<svg width="91" height="84" viewBox="0 0 91 84" fill="none" xmlns="http://www.w3.org/2000/svg">
<g clip-path="url(#clip0_347_790)">
<path d="M40.3225 21.2966C40.3225 21.2966 40.152 21.0293 40.152 20.7863C40.1276 19.3527 40.6149 17.8218 41.6138 16.7527C42.6859 15.6349 44.0503 14.9303 45.3659 14.1041C46.3405 13.4723 47.2176 12.9135 47.8023 11.8929C47.6074 12.2574 47.6805 13.0836 47.5831 13.4966C47.4612 14.0798 47.315 14.6387 47.1201 15.1976C46.7059 16.3396 46.1456 17.4331 45.3903 18.405C44.6837 19.3041 43.8066 20.1059 42.7833 20.6405C42.2717 20.9078 41.7357 21.248 41.1509 21.3938C40.8098 21.4667 40.5175 21.4667 40.3225 21.2723V21.2966Z" fill="white"/>
<path d="M37.862 21.5639C39.0314 20.9807 38.6903 18.7938 38.4711 17.7732C38.0812 15.9265 36.7412 14.5415 35.6205 13.0836C34.9139 12.1602 34.2804 11.334 34.1099 10.1677C34.183 10.5808 33.8175 11.3097 33.7444 11.7471C33.452 13.6424 33.5982 15.6349 34.2073 17.4331C34.5484 18.405 35.0114 19.377 35.6448 20.2031C35.9859 20.6405 37.1798 21.8797 37.862 21.5639Z" fill="white"/>
<path d="M40.152 14.177C43.027 9.31723 42.3935 4.57895 40.152 0.78833C37.9105 4.57895 37.2771 9.31723 40.152 14.177Z" fill="white"/>
<path d="M71.1432 75.5073C69.3646 70.6719 67.5861 65.8121 65.7831 60.9766C65.1984 59.3729 64.6136 57.7935 64.0045 56.1897C63.9558 56.0682 63.9071 55.9225 63.8583 55.801C63.5903 55.1206 63.3467 54.4402 63.0787 53.7356C63.0787 53.7356 63.0543 53.6627 63.03 53.6141C62.6645 52.6421 62.299 51.6459 61.9336 50.6739C61.7387 50.1393 61.1783 49.6047 60.6423 49.3375C60.1306 49.0945 59.6434 48.8758 59.1317 48.6571C58.2059 48.244 57.2557 47.8795 56.3055 47.5393C55.1847 47.1506 54.064 46.8104 52.9189 46.5431C52.2367 46.9805 51.5545 47.4179 50.8479 47.8552C52.0174 48.0496 53.1625 48.3169 54.3076 48.6571C55.6233 49.0459 56.9146 49.5076 58.1815 50.0178C58.5226 50.1636 58.8881 50.3094 59.2292 50.4552C59.6921 50.6496 60.2037 51.1356 60.3986 51.6216L62.4209 56.5056C62.494 56.6757 62.5671 56.8458 62.6158 57.0159C63.2492 58.5467 63.8827 60.0776 64.5162 61.6327C65.9293 65.1074 67.3668 68.6065 68.7799 72.1055C69.5839 74.0494 68.9017 75.1429 66.782 74.8999C64.9304 74.7055 63.1274 74.098 61.3488 73.5877C57.816 72.6158 54.3076 71.5223 50.7261 70.6476C47.9729 69.9672 45.3416 70.599 43.0027 72.1784C41.6626 73.0774 40.4444 74.1466 39.1775 75.1429C39.1775 75.1429 39.1531 75.1672 39.1288 75.1915C38.9339 75.3615 38.7146 75.5073 38.3491 75.7746C38.3491 74.8027 38.3491 73.9279 38.3491 73.1017C38.3491 72.8588 38.3491 72.6158 38.3491 72.3728C38.544 67.0999 38.7389 61.8028 38.9582 56.5299C38.9582 56.5056 38.9582 56.4813 38.9582 56.457C38.8851 56.3598 38.7877 56.2626 38.7146 56.1897C38.7146 56.2626 38.7146 56.3112 38.7146 56.3841C38.4466 62.4831 38.2029 68.5822 37.9593 74.7055C37.9593 74.8513 37.9106 74.9971 37.8375 75.3129C36.5949 74.3167 35.4985 73.369 34.329 72.5429C31.3079 70.4046 27.97 70.0887 24.4616 71.1335C20.612 72.2756 16.7625 73.5148 12.8886 74.6083C11.6704 74.9485 10.3547 75.0943 9.06344 75.1672C7.77214 75.24 7.38232 74.584 7.8696 73.369C10.3547 67.0999 12.8642 60.8065 15.3737 54.5374C15.8123 53.4197 16.2996 52.3019 16.665 51.1599C16.9331 50.2851 17.4691 49.8477 18.3462 49.5805C19.9542 49.0945 21.5622 48.6328 23.1946 48.2683C24.4372 47.9767 25.7041 47.758 26.9954 47.6122C26.2401 47.1506 25.5092 46.6889 24.7783 46.2029C23.5357 46.4216 22.3175 46.6889 21.075 47.0291C19.4669 47.4665 17.8589 48.0253 16.2752 48.6328C15.9098 48.7786 15.4956 49.1917 15.3737 49.5805C12.1333 58.571 8.91726 67.5859 5.70119 76.6008C5.11645 78.2288 5.60374 78.8363 7.33359 78.4961C9.33145 78.1073 11.3049 77.6699 13.2297 77.0625C16.9574 75.8961 20.6364 74.5354 24.3641 73.3933C27.4584 72.4457 30.4551 72.9317 33.1108 74.7541C34.9625 76.0176 36.6193 77.5727 38.4953 79.1279C39.0557 78.569 39.6891 77.8886 40.3713 77.2325C44.3183 73.369 48.8988 71.8382 54.332 73.6363C57.5968 74.7298 60.8372 75.8718 64.102 76.941C65.7344 77.4755 67.3668 78.083 69.0479 78.3017C71.0214 78.569 71.7767 77.4269 71.0945 75.5559L71.1432 75.5073Z" fill="white"/>
<path d="M64.8817 52.8851C65.1497 53.2496 65.4908 53.5655 65.6857 53.9785C68.2927 59.9075 70.8509 65.8607 73.4335 71.8139C74.6517 74.6083 75.8699 77.4026 77.0882 80.197C77.6242 81.4363 77.3562 81.825 75.9674 81.825C65.1497 81.825 54.3321 81.825 43.5388 81.7764C42.7104 81.7764 42.3449 81.9708 42.418 82.797C42.4911 83.6718 42.0282 83.8418 41.2729 83.8175C39.543 83.7932 37.8132 83.8175 36.1077 83.8175C35.2144 83.8175 34.6296 83.3154 34.3535 82.311C34.0124 82.311 33.6469 82.311 33.2571 82.311C22.8049 82.311 12.3283 82.311 1.87611 82.311C0.0244371 82.311 -0.365389 81.825 0.365535 80.0512C1.99793 76.212 3.70342 72.3971 5.38454 68.5822C7.52859 63.7224 9.69699 58.8626 11.841 54.0271C12.0116 53.6384 12.2796 53.2739 12.4989 52.9094L12.8156 53.0552C12.7181 53.3468 12.6694 53.6627 12.5476 53.93C9.23408 61.8271 5.92056 69.6999 2.6314 77.597C1.85175 79.4438 2.48521 80.5372 4.5318 80.5858C6.48093 80.6344 8.47879 80.6101 10.3792 80.2213C14.3262 79.4195 18.2975 78.6176 22.074 77.2812C28.0188 75.2157 32.8916 76.7466 37.3015 80.7802C37.667 81.1204 38.0568 81.4363 38.4223 81.7521C39.5187 80.8531 40.4689 79.9297 41.5653 79.1522C45.3904 76.4064 49.5323 75.6774 54.1372 76.9896C58.6689 78.2774 63.2737 79.3709 67.8785 80.4157C69.2673 80.7316 70.7535 80.6101 72.191 80.5615C72.8244 80.5615 73.5066 80.2699 74.067 79.954C75.1147 79.3709 75.3096 78.4718 74.8467 77.3541C71.4357 69.4326 68.0491 61.4869 64.6625 53.5412C64.6137 53.4197 64.6137 53.2496 64.5894 53.1038L64.9061 52.8851H64.8817Z" fill="white"/>
<path d="M67.4888 32.4983C67.2939 34.1993 66.831 35.8759 66.1731 37.4553C65.832 38.2572 65.4178 39.0104 64.9306 39.7637C64.7113 40.1525 64.4433 40.4441 64.1753 40.7842C63.9316 41.1244 63.6636 41.4403 63.3956 41.7805C61.3734 44.1375 58.8883 46.0328 56.3057 47.5393C56.1108 47.6608 55.9158 47.7823 55.7209 47.8795C55.258 48.1468 54.7951 48.4141 54.3078 48.6571C51.9689 49.8963 49.5812 50.9412 47.2666 52.0589C44.4647 53.3711 41.7359 54.829 39.1777 56.6514C41.2243 54.2701 43.8312 52.3505 46.4382 50.601C47.9 49.6533 49.3863 48.7543 50.8481 47.8552C51.5547 47.4178 52.2369 46.9805 52.9191 46.5431C53.382 46.2515 53.8449 45.9356 54.3078 45.6197C56.7929 43.8945 59.0832 41.9749 60.8861 39.7151L61.5196 38.8403C61.7145 38.5488 61.9581 38.2572 62.1287 37.9656C62.4942 37.3824 62.7865 36.7749 63.0545 36.1189C63.5662 34.831 63.9316 33.4703 64.0778 32.061C64.2484 30.6759 64.224 29.2666 63.956 27.9302C63.8829 27.4928 63.7854 27.0797 63.6636 26.6666C63.5905 26.4479 63.5418 26.2049 63.4444 26.0105C63.2007 25.3788 62.9083 24.747 62.5672 24.1881C61.8851 23.0704 60.9105 22.147 59.7897 21.4667C58.6203 20.8349 57.329 20.3489 55.9402 20.1788C53.1627 19.8629 50.1659 20.4704 47.3397 21.5882C46.6331 21.8554 45.9265 22.1713 45.22 22.4629C44.5378 22.8031 43.8312 23.1433 43.149 23.5078C41.7846 24.2367 40.469 25.0629 39.1533 25.9133C40.2253 24.7713 41.3948 23.7022 42.6374 22.7059C43.88 21.7096 45.22 20.8349 46.6087 20.033C48.0219 19.2798 49.5081 18.5994 51.1161 18.1377C52.7241 17.676 54.4053 17.433 56.1351 17.4816L57.4264 17.6031C57.865 17.6517 58.2792 17.7732 58.7177 17.8704C59.1563 17.9433 59.5705 18.1377 59.9846 18.2835L60.5938 18.5022C60.7887 18.5994 61.0079 18.6966 61.2029 18.7938C62.8109 19.5956 64.224 20.8592 65.2473 22.3657C65.7833 23.1433 66.2219 23.9694 66.563 24.8442C66.6361 25.0629 66.7335 25.2816 66.8066 25.5003C67.0015 26.0834 67.1477 26.6666 67.2695 27.2498C67.6106 28.975 67.6593 30.7002 67.4644 32.4011L67.4888 32.4983Z" fill="white"/>
<path d="M39.0071 56.4327C39.0071 56.4327 39.1289 56.5785 39.202 56.6514C39.1289 56.6028 39.0802 56.5542 39.0071 56.5056C38.934 56.4327 38.8365 56.3841 38.7634 56.3355C36.327 54.6589 33.7688 53.2982 31.1374 52.0589L26.8981 50.0664C25.6799 49.5075 24.486 48.8758 23.2678 48.1954C23.0729 48.0739 22.878 47.9767 22.6587 47.8552C22.1471 47.5636 21.6354 47.272 21.1238 46.9319C19.5645 45.9599 18.0539 44.8179 16.6895 43.53C16.4946 43.3599 16.3241 43.1655 16.1291 42.9954C15.7393 42.6067 15.3495 42.1936 14.984 41.7562C14.716 41.4403 14.4724 41.1001 14.2044 40.76C13.9607 40.4198 13.6927 40.1039 13.4491 39.7394C12.9862 39.0104 12.572 38.2329 12.2065 37.431C11.5487 35.8273 11.0858 34.175 10.8909 32.474C10.6959 30.7731 10.7447 29.0236 11.0858 27.3227C11.4269 25.6218 12.0603 23.9208 13.0836 22.4386C14.0826 20.9321 15.4957 19.6928 17.1037 18.8667C17.2986 18.7695 17.5179 18.6723 17.7128 18.5751L18.3463 18.3321C18.7605 18.1863 19.1747 17.9919 19.6132 17.9433C20.0518 17.8704 20.466 17.7489 20.9045 17.676L22.1958 17.5545C23.9257 17.5059 25.6068 17.7246 27.2148 18.2106C28.8229 18.6723 30.3091 19.3284 31.7222 20.1059C33.1353 20.8835 34.451 21.7825 35.6935 22.7545C36.9361 23.7507 38.1056 24.7956 39.1776 25.9619C37.8619 25.0872 36.5463 24.2853 35.1819 23.5564C34.4997 23.1919 33.8175 22.8517 33.1109 22.5115C32.4044 22.1956 31.7222 21.8797 30.9913 21.6367C28.1894 20.519 25.1926 19.9115 22.4151 20.2274C21.0263 20.3975 19.735 20.8835 18.5656 21.5153C17.4448 22.1956 16.4702 23.119 15.788 24.2367C15.1059 25.3545 14.6186 26.6423 14.3749 27.9787C14.1313 29.3152 14.1069 30.7245 14.2531 32.1096C14.3993 33.4946 14.7648 34.8796 15.2764 36.1675C15.5444 36.7992 15.8611 37.431 16.2022 38.0142C16.3728 38.3058 16.5921 38.5974 16.8113 38.8889L17.4448 39.7637C19.2478 42.0235 21.538 43.9188 24.0231 45.6683C24.2668 45.8384 24.5348 46.0085 24.7784 46.1786C25.5093 46.6646 26.2403 47.1263 26.9955 47.5879C27.2879 47.7823 27.6046 47.9524 27.897 48.1468C29.2127 48.973 30.5527 49.7991 31.8684 50.6496C34.3048 52.2776 36.7168 54.0514 38.6903 56.1897C38.7634 56.2869 38.8609 56.3841 38.934 56.457L39.0071 56.4327Z" fill="white"/>
<path d="M74.5056 22.0741V22.3657L74.2375 22.1713L74.5056 22.0741Z" fill="white"/>
<path d="M74.5056 22.0741V22.3657L74.2375 22.1713L74.5056 22.0741Z" fill="white"/>
<path d="M79.1347 23.0461C78.7936 23.119 78.5012 23.1676 78.2088 23.2162C78.1601 23.2162 78.1357 23.2162 78.1114 23.2162C78.1114 23.1919 78.087 23.1676 78.0626 23.1433L77.9408 23.0461L77.6972 22.8517L76.6982 22.0741H76.6495L74.8709 22.6816L75.1633 22.9003L75.4069 23.0947L75.5288 23.1919C75.5288 23.1919 75.5775 23.1919 75.6019 23.2162C75.6262 23.2162 75.6262 23.2648 75.6262 23.3134C75.6749 23.6049 75.6993 23.8965 75.6993 24.2367C75.3582 24.3339 75.0658 24.3582 74.7735 24.4068C74.7247 24.4068 74.7004 24.4068 74.676 24.4068C74.676 24.4068 74.6517 24.3582 74.6273 24.3339L74.5055 24.2367L74.2618 24.0423L73.2629 23.2648H73.2385L66.8064 25.5489L63.6634 26.6909L41.9063 34.4908C42.0281 34.9525 42.0525 35.4628 41.955 35.9002C41.8575 36.4347 41.5895 36.9207 41.1997 37.3095C41.1023 37.0422 41.0779 36.7992 41.0048 36.5562C40.9317 36.3132 40.9073 36.0946 40.8586 35.8759C40.7855 35.4628 40.6637 35.074 40.5175 34.7338C40.3713 34.3936 40.2251 34.0292 40.0302 33.689C39.811 33.3488 39.5917 32.96 39.1775 32.6198C39.4455 32.4983 39.7379 32.5226 40.0302 32.5712C40.2982 32.6441 40.5662 32.7656 40.8099 32.9114C41.151 33.1301 41.4434 33.4703 41.6626 33.8348L63.4685 26.0105L66.5871 24.8928L72.9949 22.5844L73.068 21.248C73.068 21.005 73.1167 20.7863 73.068 20.5433C73.2629 20.3246 73.5309 20.1059 73.8476 19.8872C74.14 20.1302 74.3836 20.3732 74.5542 20.6162C74.5055 20.8349 74.5298 21.0779 74.5055 21.2966L74.4567 22.0255L74.1887 22.1227L74.4324 22.3171V22.0255L76.3815 21.3209L76.4546 20.0087C76.4546 19.7657 76.5033 19.547 76.4546 19.304C76.6495 19.0854 76.9175 18.8667 77.2586 18.648C77.551 18.891 77.7946 19.134 77.9652 19.3769C77.9164 19.5956 77.9408 19.8386 77.9164 20.0816L77.8677 21.0779L78.5499 21.6124L78.7936 21.8068L78.9154 21.904C78.9154 21.904 78.9641 21.904 78.9885 21.9283C78.9885 21.9283 78.9885 21.9769 79.0128 22.0255C79.0616 22.3171 79.0859 22.6087 79.0859 22.9489L79.1347 23.0461Z" fill="white"/>
<path d="M14.2531 44.4291L14.9353 46.3487L10.0625 45.4739L13.2542 41.6833L14.0095 43.773L17.9077 42.388L18.1514 43.0441L14.2531 44.4291Z" fill="white"/>
<path d="M42.7346 71.012L43.636 70.0887C43.904 69.7971 44.2695 69.4569 44.7081 69.0681C45.1222 68.6794 45.5852 68.2177 46.1212 67.756C47.1445 66.8326 48.3627 65.8121 49.7027 64.7672C49.7027 64.7672 58.4007 57.8421 67.7565 54.0757C67.7565 54.0757 57.9865 59.3729 50.5311 65.5448C52.4071 67.027 55.1359 67.4158 57.3287 66.1766C58.62 65.4476 61.0807 61.9243 62.7862 62.7018C61.9579 62.3131 61.2026 61.9729 60.5447 61.6813C59.692 61.2925 58.9854 60.9766 58.4981 60.7336L57.7429 60.3448L58.5712 60.6364C59.0829 60.8065 59.8382 61.0495 60.764 61.3654C61.568 61.657 62.4695 61.9243 63.4441 62.3131C65.7343 60.9523 68.0976 59.8346 70.6071 58.9598C70.1442 58.6196 69.73 58.3037 69.3402 58.0122C68.122 57.1374 67.3667 56.5785 67.3667 56.5785L67.9758 56.8944C68.3656 57.0888 68.926 57.3804 69.5838 57.7692C70.0955 58.0608 70.6558 58.3523 71.2406 58.7411L72.3857 58.3766C74.4079 57.7935 76.552 57.4047 78.7691 57.1131C78.4036 56.8215 78.0382 56.5299 77.7214 56.2869C77.0636 55.801 76.5276 55.4122 76.1378 55.1449C75.9429 54.9991 75.7967 54.9019 75.6992 54.829L75.553 54.7318L75.7236 54.829C75.7236 54.829 76.016 54.9748 76.2352 55.0963L77.9894 56.0925C78.4524 56.3841 78.964 56.7 79.5 57.0402C80.0604 56.943 80.5964 56.9187 81.1568 56.8701L82.375 56.7486L83.5932 56.6757L84.8114 56.5785C85.2256 56.5299 85.6398 56.5299 86.054 56.5056C86.1758 56.5056 86.5413 56.4813 87.0285 56.457L87.8326 56.4084C88.1249 56.4084 88.4173 56.4084 88.7097 56.4084C89.8791 56.4084 90.9999 56.3355 91.0243 56.1897C91.0243 56.1897 91.0973 55.2664 90.537 53.7842C89.9766 52.3019 88.8071 50.2122 86.0052 48.1954C85.1038 48.1468 84.1536 48.0739 83.1059 48.1468L81.5466 48.2197C81.035 48.244 80.499 48.3412 79.9629 48.4141C79.3295 48.5113 78.696 48.5842 78.0869 48.73C77.4778 48.8758 76.8931 49.0216 76.3327 49.1674C75.7723 49.3132 75.2363 49.5319 74.749 49.7019C74.2617 49.8963 73.7988 50.0664 73.409 50.2608C72.5806 50.6496 71.9715 51.0141 71.533 51.2571C71.1188 51.5244 70.8995 51.6945 70.8995 51.6945C70.8995 51.6945 71.0944 51.5001 71.4599 51.1842C71.8253 50.8926 72.3857 50.5038 73.141 50.0178C73.8719 49.5319 74.8221 49.1188 75.8941 48.6328C76.4301 48.4141 76.9905 48.2197 77.5753 48.0253C77.8676 47.9281 78.1844 47.8309 78.4767 47.7337C78.7935 47.6365 79.0858 47.5879 79.4026 47.4907C80.1091 47.3207 80.84 47.1506 81.571 47.0291C82.2775 46.9319 83.0085 46.8347 83.6907 46.7618C83.0572 46.4702 82.375 46.1543 81.6441 45.8627C80.8888 45.5954 80.0848 45.3768 79.232 45.1338C78.3793 44.8908 77.4291 44.7936 76.4301 44.6478C75.4312 44.5263 74.3592 44.502 73.2141 44.4777C72.3126 44.9151 71.4111 45.3282 70.5828 45.8141C67.7078 47.4665 65.5881 49.7019 64.4186 51.3786C63.8339 52.2533 63.4441 52.9337 63.2248 53.4683C63.0055 53.9785 62.9081 54.2701 62.9081 54.2701C62.9081 54.2701 62.9568 53.9785 63.103 53.4683C63.2492 52.958 63.5172 52.229 63.9801 51.3543C64.8815 49.6048 66.6845 47.2721 69.3645 45.3039C69.6569 45.0852 69.9737 44.8665 70.2904 44.6478C69.5107 44.7693 68.7067 44.8908 67.8783 45.0366C67.05 45.231 66.2216 45.4253 65.3445 45.6926C63.3222 46.3487 61.3 47.1749 59.424 48.2683C58.9123 48.8515 58.4738 49.5319 58.084 50.1393C57.4749 51.087 57.0607 52.0832 56.7439 52.958C56.4516 53.8571 56.281 54.6832 56.2079 55.3393C56.0861 56.7 56.3054 57.4776 56.3054 57.4776C56.3054 57.4776 55.9399 56.7972 55.7694 55.5337C55.6963 54.9019 55.6963 54.1243 55.8181 53.2253C55.8912 52.7879 55.9643 52.3019 56.0861 51.8159C56.2323 51.33 56.3785 50.844 56.5977 50.3337L56.7439 49.9692C56.7439 49.9692 53.8202 51.7674 51.0671 55.558L50.994 55.6552C50.994 55.6552 50.8478 55.8496 50.7747 55.9225C49.1667 58.158 47.5099 60.8065 48.7769 63.4308C47.3637 64.4757 46.0481 65.4719 44.9517 66.3953C44.3913 66.8569 43.904 67.3186 43.4411 67.7074C43.0026 68.0962 42.6127 68.4364 42.3204 68.7523L41.3702 69.6999L38.1785 73.2232C38.1785 73.2232 38.2516 75.0943 38.1785 76.5279C38.1785 76.5279 40.3469 73.2718 42.6615 70.9877L42.7346 71.012Z" fill="white"/>
</g>
<defs>
<clipPath id="clip0_347_790">
<rect width="91" height="83.0292" fill="white" transform="translate(0 0.78833)"/>
</clipPath>
</defs>
</svg>
