<svg width="377" height="600" viewBox="0 0 377 600" fill="none" xmlns="http://www.w3.org/2000/svg">
<g clip-path="url(#clip0_361_12)">
<path d="M313.259 510.364C314.94 516.433 317.554 522.503 320.729 527.918C321.195 528.758 324.837 532.773 324.93 533.427C319.235 448.646 373.39 446.966 373.39 446.966C406.536 444.538 407.283 472.829 407.283 472.829C396.266 472.643 382.727 474.697 376.191 484.687C368.721 496.079 373.203 514.006 383.754 521.382C393.651 528.385 405.789 527.451 416.153 522.129C421.849 519.235 428.012 515.22 432.493 510.644C442.297 500.654 447.9 487.302 448.18 473.296C449.207 429.319 408.124 406.723 368.628 412.979C324.557 419.888 302.335 469.935 313.259 510.271V510.364Z" fill="white" fill-opacity="0.5"/>
<path d="M183.754 522.316C194.118 527.544 206.256 528.478 216.154 521.569C226.705 514.099 231.186 496.265 223.717 484.874C217.087 474.79 203.642 472.736 192.624 473.016C192.624 473.016 193.465 444.725 226.518 447.152C226.518 447.152 280.673 448.739 274.977 533.613C274.977 532.96 278.619 528.945 279.179 528.105C282.353 522.689 285.061 516.62 286.648 510.551C297.479 470.215 275.351 420.168 231.28 413.259C191.784 407.096 150.701 429.598 151.728 473.576C152.101 487.582 157.61 501.027 167.414 510.924C171.896 515.5 178.058 519.514 183.754 522.409V522.316Z" fill="white" fill-opacity="0.5"/>
<path d="M301.961 535.481V449.953C310.551 418.581 345.752 387.395 376.47 387.395C341.176 387.395 300 346.218 300 310.924C300 346.218 258.823 387.395 223.529 387.395C254.248 387.395 289.449 418.581 298.039 449.953V535.481L280.205 553.315L300.093 599.907L319.981 553.315L302.147 535.481H301.961Z" fill="white" fill-opacity="0.5"/>
<path d="M286.741 89.5425C285.061 83.4734 282.446 77.4044 279.272 71.9889C278.805 71.1485 275.163 67.1336 275.07 66.48C280.766 151.261 226.611 152.941 226.611 152.941C193.464 155.369 192.717 127.078 192.717 127.078C203.735 127.264 217.273 125.21 223.809 115.219C231.279 103.828 226.797 85.9011 216.246 78.5248C206.349 71.522 194.211 72.4557 183.847 77.7778C178.151 80.6723 171.989 84.6873 167.507 89.2624C157.703 99.2531 152.101 112.605 151.821 126.611C150.794 170.588 191.877 193.184 231.372 186.928C275.443 180.019 297.666 129.972 286.741 89.6359V89.5425Z" fill="white" fill-opacity="0.5"/>
<path d="M416.153 77.5911C405.789 72.3623 393.651 71.4286 383.753 78.338C373.202 85.8077 368.721 103.641 376.19 115.033C382.82 125.117 396.265 127.171 407.283 126.891C407.283 126.891 406.442 155.182 373.389 152.754C373.389 152.754 319.234 151.167 324.93 66.2932C324.93 66.9468 321.288 70.9617 320.728 71.8021C317.554 77.2176 314.846 83.2867 313.258 89.3558C302.427 129.692 324.556 179.739 368.627 186.648C408.123 192.81 449.206 170.308 448.179 126.331C447.806 112.325 442.297 98.8796 432.493 88.9823C428.011 84.4071 421.849 80.3922 416.153 77.4977V77.5911Z" fill="white" fill-opacity="0.5"/>
<path d="M298.039 64.519V150.047C289.449 181.419 254.248 212.605 223.529 212.605C258.823 212.605 300 253.781 300 289.076C300 253.781 341.176 212.605 376.47 212.605C345.752 212.605 310.551 181.419 301.961 150.047V64.519L319.794 46.6852L299.906 0.0932617L280.019 46.6852L297.852 64.519H298.039Z" fill="white" fill-opacity="0.5"/>
<path d="M535.481 298.039H449.954C418.581 289.449 387.395 254.248 387.395 223.529C387.395 258.823 346.219 300 310.925 300C346.219 300 387.395 341.176 387.395 376.47C387.395 345.752 418.581 310.551 449.954 301.961H535.481L553.315 319.794L599.907 299.906L553.315 280.019L535.481 297.852V298.039Z" fill="white" fill-opacity="0.5"/>
<path d="M89.5421 313.259C83.473 314.939 77.4039 317.554 71.9884 320.728C71.148 321.195 67.1331 324.836 66.4795 324.93C151.26 319.234 152.941 373.389 152.941 373.389C155.368 406.536 127.077 407.283 127.077 407.283C127.264 396.265 125.21 382.726 115.219 376.19C103.828 368.721 85.9006 373.202 78.5243 383.753C71.5215 393.651 72.4552 405.789 77.7773 416.153C80.6718 421.849 84.6868 428.011 89.2619 432.493C99.2526 442.297 112.605 447.899 126.61 448.179C170.588 449.206 193.184 408.123 186.928 368.627C180.018 324.556 129.972 302.334 89.6354 313.259H89.5421Z" fill="white" fill-opacity="0.5"/>
<path d="M77.5908 183.847C72.3621 194.211 71.4284 206.349 78.3378 216.246C85.8074 226.797 103.641 231.279 115.032 223.809C125.116 217.18 127.171 203.735 126.891 192.717C126.891 192.717 155.182 193.557 152.754 226.611C152.754 226.611 151.167 280.766 66.293 275.07C66.9466 275.07 70.9615 278.711 71.8018 279.272C77.2173 282.446 83.2864 285.154 89.3555 286.741C129.692 297.572 179.738 275.443 186.648 231.372C192.81 191.877 170.308 150.794 126.33 151.821C112.325 152.194 98.8793 157.703 88.982 167.507C84.4069 171.989 80.3919 178.151 77.4975 183.847H77.5908Z" fill="white" fill-opacity="0.5"/>
<path d="M64.5195 301.961H150.047C181.42 310.551 212.605 345.752 212.605 376.47C212.605 341.176 253.782 300 289.076 300C253.782 300 212.605 258.823 212.605 223.529C212.605 254.248 181.42 289.449 150.047 298.039H64.5195L46.6857 280.205L0.09375 300.093L46.6857 319.981L64.5195 302.147V301.961Z" fill="white" fill-opacity="0.5"/>
</g>
<defs>
<clipPath id="clip0_361_12">
<rect width="600" height="600" fill="white"/>
</clipPath>
</defs>
</svg>
