<svg width="548" height="907" viewBox="0 0 548 907" fill="none" xmlns="http://www.w3.org/2000/svg">
<g clip-path="url(#clip0_363_365)">
<path d="M548 0H0V907H548V0Z" fill="url(#paint0_linear_363_365)"/>
<rect y="849" width="548" height="12" fill="#D3D3D3"/>
<path d="M53.3999 536.665L59.4899 519.165H56.7599V518.5H62.1149V519.165H60.4699L52.0349 543.35H49.0949L40.1699 519.165H38.5599V518.5H50.0049V519.165H47.5199L53.3999 536.665ZM67.2921 523.925C66.0555 523.925 65.1688 523.61 64.6321 522.98C64.1188 522.35 63.8621 521.568 63.8621 520.635C63.8621 519.702 64.1421 518.932 64.7021 518.325C65.2855 517.718 66.1605 517.415 67.3271 517.415C68.4938 517.415 69.3805 517.695 69.9871 518.255C70.5938 518.792 70.8971 519.573 70.8971 520.6C70.8971 521.603 70.6055 522.408 70.0221 523.015C69.4388 523.622 68.5288 523.925 67.2921 523.925ZM62.0071 526.34H70.5821V542.37H72.5421V543H62.1471V542.37H64.0721V526.97H62.0071V526.34ZM71.8459 526.97V526.34H82.3109V526.97H80.1059L84.3059 538.59L88.0859 526.97H85.7409V526.34H90.4659V526.97H88.9259L83.7459 543H79.7559L73.2809 526.97H71.8459ZM98.1643 534.775H99.1793V532.08C99.1793 529.863 99.051 528.382 98.7943 527.635C98.561 526.865 98.0943 526.48 97.3943 526.48C96.9743 526.48 96.5893 526.597 96.2393 526.83C95.9126 527.04 95.7493 527.343 95.7493 527.74C95.7493 528.113 95.8193 528.498 95.9593 528.895H96.8343C97.021 529.385 97.1143 529.98 97.1143 530.68C97.1143 531.357 96.8226 531.952 96.2393 532.465C95.656 532.955 94.921 533.2 94.0343 533.2C92.0276 533.2 91.0243 532.232 91.0243 530.295C91.0243 527.425 93.4626 525.99 98.3393 525.99C101.116 525.99 103.029 526.468 104.079 527.425C105.153 528.358 105.689 530.085 105.689 532.605V539.71C105.689 540.923 106.028 541.53 106.704 541.53C107.498 541.53 107.964 540.328 108.104 537.925L108.629 537.96C108.536 540.013 108.151 541.425 107.474 542.195C106.798 542.965 105.689 543.35 104.149 543.35C101.349 543.35 99.7393 542.487 99.3193 540.76C99.016 541.647 98.561 542.3 97.9543 542.72C97.3476 543.14 96.461 543.35 95.2943 543.35C91.841 543.35 90.1143 541.938 90.1143 539.115C90.1143 537.458 90.7676 536.327 92.0743 535.72C93.4043 535.09 95.4343 534.775 98.1643 534.775ZM96.7643 539.08C96.7643 540.293 96.8226 541.075 96.9393 541.425C97.0793 541.775 97.3243 541.95 97.6743 541.95C98.0476 541.95 98.386 541.658 98.6893 541.075C99.016 540.468 99.1793 539.64 99.1793 538.59V535.335H98.9343C97.4876 535.335 96.7643 536.397 96.7643 538.52V539.08ZM108.973 526.34H117.408V529.56C118.178 527.18 119.87 525.99 122.483 525.99C125.12 525.99 126.718 527.25 127.278 529.77C128.095 527.25 129.81 525.99 132.423 525.99C135.853 525.99 137.568 527.938 137.568 531.835V542.37H139.528V543H129.833V542.37H131.058V530.995C131.058 529.222 130.907 528.183 130.603 527.88C130.463 527.74 130.277 527.67 130.043 527.67C129.367 527.67 128.772 528.125 128.258 529.035C127.745 529.945 127.488 531.1 127.488 532.5V542.37H128.748V543H119.753V542.37H120.978V530.995C120.978 529.222 120.827 528.183 120.523 527.88C120.383 527.74 120.197 527.67 119.963 527.67C119.31 527.67 118.715 528.172 118.178 529.175C117.665 530.155 117.408 531.333 117.408 532.71V542.37H118.668V543H108.973V542.37H110.898V526.97H108.973V526.34ZM159.834 543H151.854L151.469 540.445C151.096 541.378 150.536 542.102 149.789 542.615C149.066 543.105 147.981 543.35 146.534 543.35C142.917 543.35 141.109 541.402 141.109 537.505V526.97H139.149V526.34H147.619V538.345C147.619 539.745 147.712 540.667 147.899 541.11C148.109 541.553 148.506 541.775 149.089 541.775C149.696 541.775 150.232 541.413 150.699 540.69C151.166 539.967 151.399 538.963 151.399 537.68V526.97H149.789V526.34H157.909V542.37H159.834V543ZM161.355 543.35V537.085H161.775C162.382 539.115 163.199 540.538 164.225 541.355C165.252 542.172 166.535 542.58 168.075 542.58C170.455 542.58 171.645 541.822 171.645 540.305C171.645 539.652 171.354 539.162 170.77 538.835C169.86 538.322 168.694 537.925 167.27 537.645C165.684 537.225 164.354 536.665 163.28 535.965C161.997 535.125 161.355 533.795 161.355 531.975C161.355 530.155 161.915 528.708 163.035 527.635C164.155 526.538 165.649 525.99 167.515 525.99C168.659 525.99 169.837 526.258 171.05 526.795C171.494 526.982 171.832 527.075 172.065 527.075C172.299 527.075 172.497 526.993 172.66 526.83C172.824 526.667 173.022 526.363 173.255 525.92H173.64V531.275H173.22C172.03 528.242 170.187 526.725 167.69 526.725C166.594 526.725 165.777 526.923 165.24 527.32C164.704 527.693 164.435 528.172 164.435 528.755C164.435 529.105 164.517 529.385 164.68 529.595C164.844 529.782 164.972 529.922 165.065 530.015C165.159 530.108 165.31 530.213 165.52 530.33C165.73 530.423 165.905 530.505 166.045 530.575C166.185 530.622 166.395 530.692 166.675 530.785C166.979 530.878 167.2 530.937 167.34 530.96C168.927 531.357 170.07 531.707 170.77 532.01C171.47 532.29 172.135 532.64 172.765 533.06C174.049 533.947 174.69 535.382 174.69 537.365C174.69 539.325 174.107 540.818 172.94 541.845C171.774 542.848 170.175 543.35 168.145 543.35C166.699 543.35 165.299 543.012 163.945 542.335C163.665 542.148 163.444 542.055 163.28 542.055C162.767 542.055 162.265 542.487 161.775 543.35H161.355ZM182.4 518.5H195V519.27H191.29V542.23H192.55C194.534 542.23 196.109 541.623 197.275 540.41C198.465 539.197 199.667 537.33 200.88 534.81H201.615L200.95 543H182.4V542.23H184.465V519.27H182.4V518.5ZM211.265 534.775H212.28V532.08C212.28 529.863 212.152 528.382 211.895 527.635C211.662 526.865 211.195 526.48 210.495 526.48C210.075 526.48 209.69 526.597 209.34 526.83C209.013 527.04 208.85 527.343 208.85 527.74C208.85 528.113 208.92 528.498 209.06 528.895H209.935C210.122 529.385 210.215 529.98 210.215 530.68C210.215 531.357 209.923 531.952 209.34 532.465C208.757 532.955 208.022 533.2 207.135 533.2C205.128 533.2 204.125 532.232 204.125 530.295C204.125 527.425 206.563 525.99 211.44 525.99C214.217 525.99 216.13 526.468 217.18 527.425C218.253 528.358 218.79 530.085 218.79 532.605V539.71C218.79 540.923 219.128 541.53 219.805 541.53C220.598 541.53 221.065 540.328 221.205 537.925L221.73 537.96C221.637 540.013 221.252 541.425 220.575 542.195C219.898 542.965 218.79 543.35 217.25 543.35C214.45 543.35 212.84 542.487 212.42 540.76C212.117 541.647 211.662 542.3 211.055 542.72C210.448 543.14 209.562 543.35 208.395 543.35C204.942 543.35 203.215 541.938 203.215 539.115C203.215 537.458 203.868 536.327 205.175 535.72C206.505 535.09 208.535 534.775 211.265 534.775ZM209.865 539.08C209.865 540.293 209.923 541.075 210.04 541.425C210.18 541.775 210.425 541.95 210.775 541.95C211.148 541.95 211.487 541.658 211.79 541.075C212.117 540.468 212.28 539.64 212.28 538.59V535.335H212.035C210.588 535.335 209.865 536.397 209.865 538.52V539.08ZM233.379 536.105V533.13C233.379 530.867 233.251 529.222 232.994 528.195C232.761 527.145 232.201 526.62 231.314 526.62C230.801 526.62 230.381 526.772 230.054 527.075C229.751 527.355 229.529 527.833 229.389 528.51C229.179 529.56 229.074 531.158 229.074 533.305V536.035C229.074 538.578 229.144 540.107 229.284 540.62C229.447 541.133 229.611 541.553 229.774 541.88C230.031 542.44 230.532 542.72 231.279 542.72C232.189 542.72 232.784 542.195 233.064 541.145C233.274 540.398 233.379 538.718 233.379 536.105ZM231.209 543.35C228.292 543.35 226.087 542.603 224.594 541.11C223.101 539.617 222.354 537.482 222.354 534.705C222.354 531.905 223.147 529.758 224.734 528.265C226.344 526.748 228.596 525.99 231.489 525.99C234.382 525.99 236.541 526.69 237.964 528.09C239.387 529.467 240.099 531.578 240.099 534.425C240.099 540.375 237.136 543.35 231.209 543.35ZM252.768 527.32C251.904 527.32 251.146 527.88 250.493 529C249.839 530.12 249.513 531.45 249.513 532.99V542.37H251.998V543H241.078V542.37H243.003V526.97H241.078V526.34H249.513V529.7C249.816 528.51 250.399 527.6 251.263 526.97C252.126 526.317 253.106 525.99 254.203 525.99C255.299 525.99 256.186 526.305 256.863 526.935C257.563 527.542 257.913 528.417 257.913 529.56C257.913 530.68 257.656 531.543 257.143 532.15C256.629 532.757 255.836 533.06 254.763 533.06C253.713 533.06 252.931 532.71 252.418 532.01C251.928 531.31 251.869 530.342 252.243 529.105H253.503C254.086 527.915 253.841 527.32 252.768 527.32ZM267.441 543.35C264.431 543.35 262.168 542.58 260.651 541.04C259.158 539.477 258.411 537.318 258.411 534.565C258.411 531.788 259.251 529.665 260.931 528.195C262.634 526.725 264.793 525.99 267.406 525.99C272.703 525.99 275.246 528.65 275.036 533.97H265.166V535.335C265.166 537.622 265.458 539.348 266.041 540.515C266.624 541.682 267.639 542.265 269.086 542.265C271.793 542.265 273.566 540.818 274.406 537.925L275.036 538.03C274.593 539.71 273.788 541.017 272.621 541.95C271.478 542.883 269.751 543.35 267.441 543.35ZM265.201 533.27H268.806V531.555C268.806 529.665 268.689 528.382 268.456 527.705C268.246 527.005 267.803 526.655 267.126 526.655C266.473 526.655 265.983 527.028 265.656 527.775C265.353 528.498 265.201 529.758 265.201 531.555V533.27ZM285.488 543.35C282.478 543.35 280.215 542.58 278.698 541.04C277.205 539.477 276.458 537.318 276.458 534.565C276.458 531.788 277.298 529.665 278.978 528.195C280.681 526.725 282.84 525.99 285.453 525.99C290.75 525.99 293.293 528.65 293.083 533.97H283.213V535.335C283.213 537.622 283.505 539.348 284.088 540.515C284.671 541.682 285.686 542.265 287.133 542.265C289.84 542.265 291.613 540.818 292.453 537.925L293.083 538.03C292.64 539.71 291.835 541.017 290.668 541.95C289.525 542.883 287.798 543.35 285.488 543.35ZM283.248 533.27H286.853V531.555C286.853 529.665 286.736 528.382 286.503 527.705C286.293 527.005 285.85 526.655 285.173 526.655C284.52 526.655 284.03 527.028 283.703 527.775C283.4 528.498 283.248 529.758 283.248 531.555V533.27ZM296.08 537.995V526.97H294.155V526.34H296.08V521.825L302.59 520.215V526.34H307.14V526.97H302.59V538.765C302.59 539.862 302.695 540.667 302.905 541.18C303.138 541.693 303.605 541.95 304.305 541.95C305.005 541.95 305.611 541.6 306.125 540.9C306.661 540.2 307.011 539.243 307.175 538.03L307.77 538.1C307.583 539.71 307.07 540.993 306.23 541.95C305.39 542.883 304.001 543.35 302.065 543.35C300.128 543.35 298.646 542.965 297.62 542.195C296.593 541.425 296.08 540.025 296.08 537.995Z" fill="white"/>
</g>
<defs>
<linearGradient id="paint0_linear_363_365" x1="274" y1="907" x2="274" y2="0" gradientUnits="userSpaceOnUse">
<stop stop-color="#003049"/>
<stop offset="0.76" stop-color="#003049" stop-opacity="0"/>
</linearGradient>
<clipPath id="clip0_363_365">
<rect width="548" height="907" fill="white"/>
</clipPath>
</defs>
</svg>
