<svg width="42" height="44" viewBox="0 0 42 44" fill="none" xmlns="http://www.w3.org/2000/svg">
<g id="Group 613">
<path id="Vector" d="M40.0336 21.9276C40.1524 22.0167 40.2945 22.0701 40.4426 22.0812C40.7868 22.0757 41.0992 21.8785 41.2525 21.5704C41.4053 21.2619 41.3733 20.8936 41.1693 20.6164C41.0751 20.4762 40.9709 20.3436 40.8569 20.2188C38.5862 17.9482 22.1224 1.03021 21.8558 0.712897C21.1802 -0.05337 20.4876 -0.280677 19.8291 0.423415C19.7154 0.542614 0.441795 20.5376 0.323185 20.645C-0.0332146 20.9341 -0.1049 21.4497 0.158447 21.8256C0.517231 22.1768 1.07796 22.2153 1.48151 21.9167C2.2252 21.2922 4.04209 19.5098 4.32006 19.305C4.32006 19.7477 4.43372 40.0487 4.41075 41.911C4.41075 43.1034 4.81942 43.3529 6.11398 43.3303C8.74268 43.2907 35.5214 43.3303 35.7261 43.3303C36.8334 43.2737 37.4294 42.4959 37.4294 41.3831C37.4294 38.0278 37.509 19.6682 37.5201 19.135C38.082 19.8106 39.7397 21.7126 40.0347 21.928L40.0336 21.9276ZM20.8683 2.08611C23.4684 4.92466 33.585 15.5865 36.1285 18.1635C36.0775 19.0378 35.6573 41.1101 35.6288 41.6099C32.2223 41.6099 10.4275 41.5362 6.06224 41.5077C6.06224 40.3724 5.80127 22.2056 5.69316 18.1799C6.99363 16.7546 19.9772 3.0565 20.8683 2.08532L20.8683 2.08611Z" fill="#780000"/>
<path id="Vector_2" d="M17.3252 19.0718H14.4866C13.8055 19.0718 13.2321 19.1739 13.2377 19.7814V24.5615C13.2377 25.0043 13.4535 25.2256 14.1346 25.2371C14.8162 25.2486 16.6045 25.2316 17.3253 25.2316C17.3253 25.6517 17.2857 34.6101 17.2797 35.4504C17.2797 35.9671 17.2116 36.3018 18.1086 36.2962C18.5172 36.2962 22.0088 36.3418 23.1327 36.2962C23.8253 36.2962 23.7968 35.5185 23.8198 34.7012C23.8198 32.9979 23.8764 26.5316 23.8823 25.266H27.4872C28.1002 25.266 27.9529 24.6641 27.9529 23.8864C27.9529 23.1087 27.9814 20.4178 27.9529 19.8725C27.9244 19.3276 27.9074 19.1232 27.5157 19.1062C27.1241 19.0892 24.2966 19.0551 23.8653 19.0666V15.1438C23.8653 14.8544 23.9449 14.4286 23.4111 14.4286H18.2222C17.5467 14.4286 17.3308 14.8433 17.3253 15.6662C17.3197 16.4891 17.3253 18.8734 17.3253 19.0718L17.3252 19.0718Z" fill="#780000"/>
</g>
</svg>
