<svg width="1440" height="254" viewBox="0 0 1440 254" fill="none" xmlns="http://www.w3.org/2000/svg">
<path d="M0 4.13768L34.4 2.11896C68.8 0.100244 137.6 -3.93719 206.08 10.1938C274.72 24.3248 342.88 56.6243 411.52 70.0488C480 83.5742 548.8 78.1236 617.28 70.0488C685.92 61.9739 754.08 51.2747 822.72 38.1531C891.2 25.0314 960 9.48729 1028.48 22.508C1097.12 35.4278 1165.28 76.8115 1233.92 79.133C1302.4 81.5555 1371.2 44.8148 1405.6 26.5454L1440 8.17511V205H1405.6C1371.2 205 1302.4 205 1233.92 205C1165.28 205 1097.12 205 1028.48 205C960 205 891.2 205 822.72 205C754.08 205 685.92 205 617.28 205C548.8 205 480 205 411.52 205C342.88 205 274.72 205 206.08 205C137.6 205 68.8 205 34.4 205H0V4.13768Z" fill="#780000"/>
<path d="M0 53.1377L34.4 51.119C68.8 49.1002 137.6 45.0628 206.08 59.1938C274.72 73.3248 342.88 105.624 411.52 119.049C480 132.574 548.8 127.124 617.28 119.049C685.92 110.974 754.08 100.275 822.72 87.1531C891.2 74.0314 960 58.4873 1028.48 71.508C1097.12 84.4278 1165.28 125.811 1233.92 128.133C1302.4 130.555 1371.2 93.8148 1405.6 75.5454L1440 57.1751V254H1405.6C1371.2 254 1302.4 254 1233.92 254C1165.28 254 1097.12 254 1028.48 254C960 254 891.2 254 822.72 254C754.08 254 685.92 254 617.28 254C548.8 254 480 254 411.52 254C342.88 254 274.72 254 206.08 254C137.6 254 68.8 254 34.4 254H0V53.1377Z" fill="#003049"/>
</svg>
