<svg width="224" height="30" viewBox="0 0 224 30" fill="none" xmlns="http://www.w3.org/2000/svg">
<path d="M24.5386 29.7056L15.194 24.7534L5.99726 30L7.61114 19.171L0 11.6409L10.3419 9.90045L14.8345 0L19.6124 9.75323L30 11.1645L22.611 18.9326L24.5386 29.7056Z" fill="#669BBC"/>
<path d="M71.5386 29.7056L62.194 24.7534L52.9973 30L54.6111 19.171L47 11.6409L57.3419 9.90045L61.8345 0L66.6124 9.75323L77 11.1645L69.611 18.9326L71.5386 29.7056Z" fill="#669BBC"/>
<path d="M121.539 29.7056L112.194 24.7534L102.997 30L104.611 19.171L97 11.6409L107.342 9.90045L111.835 0L116.612 9.75323L127 11.1645L119.611 18.9326L121.539 29.7056Z" fill="#669BBC"/>
<path d="M171.539 29.7056L162.194 24.7534L152.997 30L154.611 19.171L147 11.6409L157.342 9.90045L161.835 0L166.612 9.75323L177 11.1645L169.611 18.9326L171.539 29.7056Z" fill="#669BBC"/>
<path d="M218.539 29.7056L209.194 24.7534L199.997 30L201.611 19.171L194 11.6409L204.342 9.90045L208.835 0L213.612 9.75323L224 11.1645L216.611 18.9326L218.539 29.7056Z" fill="#669BBC"/>
</svg>
