<svg width="89" height="82" viewBox="0 0 89 82" fill="none" xmlns="http://www.w3.org/2000/svg">
<g clip-path="url(#clip0_281_1041)">
<path d="M39.1657 20.0301C39.0572 19.9212 39.0107 19.7657 38.9952 19.548C38.9642 18.1484 39.4447 16.6399 40.4211 15.6135C41.4595 14.5094 42.7924 13.8251 44.0478 13.032C45.0088 12.4255 45.8457 11.8812 46.4192 10.8704C46.2177 11.2125 46.2952 12.0212 46.2022 12.441C46.0937 13.0009 45.9387 13.5607 45.7372 14.105C45.3342 15.2247 44.7763 16.2978 44.0478 17.2308C43.3659 18.1173 42.5134 18.8948 41.5215 19.4236C41.0255 19.6879 40.4986 20.0301 39.9406 20.17C39.5996 20.2478 39.3207 20.2322 39.1502 20.0612L39.1657 20.0301Z" fill="#780000"/>
<path d="M36.7633 20.31C37.9102 19.7501 37.5693 17.5885 37.3678 16.6088C36.9958 14.8048 35.6784 13.4363 34.609 12.0211C33.927 11.1192 33.3226 10.3105 33.1366 9.1597C33.1986 9.54848 32.8576 10.2794 32.7956 10.6993C32.5166 12.5343 32.6406 14.4938 33.2451 16.2511C33.5705 17.1997 34.0355 18.1483 34.64 18.957C34.9654 19.3924 36.1279 20.6054 36.7943 20.2789L36.7633 20.31Z" fill="#780000"/>
<path d="M39.0106 13.0786C41.8004 8.33549 41.1805 3.70121 39.0106 0C36.8408 3.71676 36.2208 8.33549 39.0106 13.0786Z" fill="#780000"/>
<path d="M69.1095 73.0288C67.3737 68.3013 65.6378 63.5581 63.9019 58.8305C63.3285 57.2754 62.755 55.7203 62.1815 54.1496C62.135 54.0252 62.0885 53.9008 62.042 53.7608C61.7941 53.0921 61.5461 52.4234 61.2981 51.7547C61.2981 51.7547 61.2671 51.6769 61.2516 51.6458C60.9106 50.6817 60.5542 49.733 60.1977 48.7844C59.9962 48.2557 59.4537 47.7269 58.9423 47.4781C58.4618 47.2448 57.9658 47.0271 57.4699 46.8094C56.5709 46.4051 55.641 46.0474 54.7266 45.7208C53.6417 45.3476 52.5412 45.021 51.4408 44.7566C50.7744 45.1921 50.1079 45.6119 49.4415 46.0318C50.5729 46.2184 51.7043 46.4828 52.8047 46.8094C54.0756 47.1826 55.331 47.6492 56.5554 48.1468C56.8964 48.2868 57.2374 48.4267 57.5629 48.5667C58.0278 48.7688 58.5083 49.2354 58.6943 49.7019C59.3452 51.2882 60.0117 52.8899 60.6626 54.4762C60.7246 54.6317 60.8021 54.8027 60.8641 54.9738C61.4841 56.4823 62.0885 57.9752 62.7085 59.4837C64.0879 62.8894 65.4673 66.2951 66.8467 69.7009C67.6217 71.5981 66.9707 72.6712 64.9093 72.4379C63.127 72.2357 61.3756 71.6448 59.6242 71.1627C56.1835 70.2141 52.7737 69.1566 49.3175 68.3013C46.6362 67.6325 44.0943 68.2702 41.816 69.7942C40.5141 70.6651 39.3362 71.7225 38.1118 72.6867C38.1118 72.6867 38.0808 72.7178 38.0653 72.7334C37.8638 72.8889 37.6623 73.0289 37.3058 73.2932C37.3058 72.3446 37.2903 71.4893 37.3058 70.6806C37.3058 70.4318 37.3058 70.1985 37.3058 69.9652C37.4918 64.8022 37.6933 59.6392 37.8948 54.4762C37.8948 54.4451 37.8948 54.4295 37.8948 54.3984C37.8173 54.3051 37.7398 54.2118 37.6623 54.134C37.6623 54.1962 37.6623 54.2584 37.6623 54.3207C37.3988 60.2768 37.1818 66.2485 36.9339 72.2202C36.9339 72.3601 36.8874 72.5157 36.8254 72.8111C35.6164 71.8314 34.5625 70.9139 33.4156 70.1052C30.4708 68.0213 27.2471 67.6948 23.8373 68.7211C20.0866 69.8408 16.3668 71.0538 12.6006 72.1269C11.4072 72.469 10.1363 72.609 8.89637 72.6712C7.62546 72.7334 7.26899 72.1113 7.73395 70.9139C10.1518 64.7711 12.5851 58.6439 15.0184 52.5167C15.4524 51.4126 15.9329 50.3395 16.2893 49.2043C16.5528 48.3334 17.0643 47.9135 17.9167 47.6647C19.4666 47.1826 21.032 46.7316 22.6284 46.3739C23.8373 46.094 25.0772 45.8608 26.3171 45.7208C25.5887 45.2698 24.8602 44.8033 24.1628 44.3367C22.9539 44.5389 21.7604 44.8188 20.567 45.1454C19.0016 45.5808 17.4518 46.1251 15.9174 46.7161C15.5609 46.856 15.1734 47.2604 15.0339 47.6336C11.8877 56.4201 8.75688 65.2377 5.6416 74.0397C5.08364 75.6259 5.53311 76.2324 7.22249 75.9058C9.15985 75.5326 11.0817 75.0972 12.9571 74.5062C16.5838 73.371 20.1486 72.0336 23.7753 70.9139C26.7821 69.9808 29.6959 70.4629 32.2687 72.2513C34.0666 73.4954 35.6784 75.0194 37.5073 76.5279C38.0498 75.9836 38.6697 75.3149 39.3207 74.6773C43.1644 70.8983 47.6126 69.4054 52.8667 71.1782C56.044 72.2513 59.1903 73.3554 62.3675 74.3974C63.9484 74.9106 65.5448 75.5015 67.1722 75.7192C69.094 75.9836 69.8225 74.8639 69.156 73.0444L69.1095 73.0288Z" fill="#003049"/>
<path d="M63.0185 50.8994C63.282 51.2571 63.623 51.5681 63.7934 51.9569C66.3198 57.7575 68.8151 63.5737 71.3259 69.3899C72.5038 72.1269 73.6972 74.8484 74.8596 77.5854C75.3711 78.7828 75.1231 79.1872 73.7902 79.1872C63.282 79.1872 52.7892 79.1872 42.281 79.125C41.4905 79.125 41.1186 79.3116 41.1961 80.1203C41.2736 80.9756 40.8086 81.1311 40.0801 81.1311C38.4063 81.1 36.7324 81.1311 35.0585 81.1311C34.1802 81.1311 33.6119 80.6438 33.3536 79.6693C33.0282 79.6693 32.6562 79.6693 32.2997 79.6693C22.1324 79.6693 11.9807 79.6693 1.8134 79.6693C3.21525e-05 79.6693 -0.371941 79.1872 0.356506 77.461C1.93739 73.6976 3.59577 69.9808 5.23866 66.2485C7.331 61.5054 9.42335 56.7622 11.5157 52.0191C11.6862 51.6303 11.9342 51.2882 12.1512 50.9149L12.4611 51.0549C12.3681 51.3504 12.3216 51.6458 12.1977 51.9258C8.98938 59.6392 5.76562 67.3371 2.55735 75.0505C1.7979 76.8545 2.41786 77.9275 4.41721 77.9742C6.30808 78.0208 8.24544 78.0053 10.0898 77.6165C13.918 76.8234 17.7773 76.0303 21.4505 74.7551C27.2161 72.7334 31.9432 74.2263 36.2364 78.1763C36.5929 78.5029 36.9804 78.8139 37.3213 79.125C38.3753 78.2385 39.3207 77.3521 40.3591 76.5901C44.0789 73.9153 48.1086 73.1844 52.5722 74.4751C56.9894 75.7348 61.4531 76.8078 65.9323 77.8187C67.2807 78.1297 68.7221 78.0208 70.117 77.9742C70.7369 77.9586 71.3879 77.6787 71.9304 77.3677C72.9533 76.7923 73.1393 75.9058 72.6898 74.8328C69.3885 67.0883 66.0873 59.3282 62.786 51.5681C62.724 51.4437 62.7395 51.2882 62.7085 51.1482L63.003 50.9305L63.0185 50.8994Z" fill="#003049"/>
<path d="M65.5603 30.9781C65.3588 32.6421 64.9249 34.275 64.2739 35.8301C63.9329 36.6077 63.53 37.3542 63.065 38.0695C62.848 38.4428 62.5845 38.7382 62.3365 39.0804C62.0886 39.4069 61.8406 39.7335 61.5926 40.0601C59.6242 42.3772 57.2064 44.2123 54.7111 45.6897C54.5251 45.8141 54.3391 45.9229 54.1376 46.0318C53.6882 46.2962 53.2232 46.545 52.7582 46.7938C50.4799 48.0068 48.1706 49.0332 45.9077 50.1218C43.1799 51.4125 40.5451 52.8277 38.0498 54.6161C40.0336 52.2834 42.56 50.4173 45.1018 48.7066C46.5277 47.7891 47.9691 46.9027 49.3795 46.0162C50.0614 45.5964 50.7279 45.1609 51.3788 44.741C51.8283 44.4456 52.2933 44.1501 52.7272 43.8546C55.1451 42.1595 57.3614 40.3089 59.1128 38.0851L59.7172 37.2142C59.9187 36.9343 60.1512 36.6544 60.3062 36.3589C60.6472 35.7835 60.9571 35.1925 61.2051 34.5549C61.7166 33.2953 62.0576 31.9579 62.1971 30.6049C62.352 29.252 62.3365 27.8679 62.0886 26.5616C62.0111 26.1417 61.9336 25.7374 61.7941 25.333C61.7321 25.1153 61.6701 24.8976 61.5771 24.6799C61.3446 24.0578 61.0501 23.4513 60.7092 22.907C60.0427 21.8029 59.1128 20.9165 58.0124 20.2633C56.8809 19.6413 55.61 19.1592 54.2771 19.0037C51.5648 18.6926 48.6665 19.2836 45.9387 20.3722C45.2413 20.621 44.5748 20.932 43.8929 21.243C43.2264 21.5696 42.56 21.9117 41.8935 22.2694C40.5761 22.9848 39.2897 23.7779 38.0033 24.6177C39.0417 23.498 40.1731 22.456 41.3821 21.4919C42.591 20.5277 43.8774 19.6568 45.2413 18.8948C46.6207 18.1483 48.0621 17.4952 49.612 17.0442C51.1618 16.5932 52.8047 16.3599 54.4786 16.4066L55.7495 16.531C56.168 16.5777 56.5865 16.7021 57.0049 16.7798C57.4234 16.8576 57.8264 17.0286 58.2293 17.1842L58.8338 17.4019C59.0353 17.4952 59.2368 17.5885 59.4228 17.6974C60.9881 18.4905 62.3675 19.719 63.344 21.1808C63.8709 21.9429 64.2894 22.7515 64.6149 23.6068C64.6924 23.8246 64.7699 24.0267 64.8474 24.2444C65.0333 24.8043 65.1883 25.3797 65.2968 25.9551C65.6223 27.6346 65.6688 29.3297 65.4828 30.9937L65.5603 30.9781Z" fill="#780000"/>
<path d="M37.8792 54.3828C37.8792 54.3828 38.0032 54.5228 38.0652 54.6005C38.0032 54.5539 37.9412 54.5072 37.8637 54.4606C37.7863 54.3984 37.7088 54.3517 37.6313 54.2895C35.2754 52.6411 32.7801 51.3192 30.2073 50.1062L26.0846 48.1623C24.8912 47.6025 23.7288 46.9804 22.5663 46.3428C22.3649 46.234 22.1789 46.1251 21.9929 46.0162C21.4969 45.7363 21.001 45.4408 20.505 45.1143C18.9861 44.1501 17.5292 43.0459 16.1963 41.7863C16.0103 41.6152 15.8398 41.4286 15.6538 41.2575C15.2664 40.8688 14.8944 40.4644 14.5379 40.0445C14.2744 39.7335 14.0265 39.3914 13.794 39.0648C13.546 38.7382 13.2825 38.4272 13.0655 38.054C12.6006 37.3386 12.1976 36.5922 11.8566 35.8146C11.2057 34.2595 10.7717 32.6266 10.5857 30.9626C10.3997 29.2986 10.4462 27.588 10.7717 25.924C11.0972 24.26 11.7326 22.596 12.7246 21.1497C13.701 19.6879 15.0804 18.4594 16.6458 17.6662C16.8473 17.5729 17.0487 17.4641 17.2347 17.3863L17.8392 17.1531C18.2422 17.0131 18.6296 16.8265 19.0636 16.7643C19.4821 16.6865 19.9005 16.5621 20.319 16.5155L21.5899 16.391C23.2638 16.3444 24.9067 16.5621 26.4566 17.0286C28.0065 17.4641 29.4479 18.1328 30.8273 18.8792C32.1912 19.6413 33.4931 20.5121 34.6865 21.4763C35.8954 22.4405 37.0268 23.4824 38.0652 24.6021C36.7943 23.7468 35.5079 22.9537 34.175 22.2383C33.5086 21.8806 32.8421 21.5385 32.1757 21.2119C31.4937 20.9009 30.8273 20.5899 30.1298 20.3411C27.402 19.2369 24.4882 18.6615 21.7914 18.957C20.443 19.1125 19.1721 19.6102 18.0407 20.2167C16.9403 20.8854 16.0103 21.7718 15.3439 22.8604C14.6774 23.949 14.2125 25.1931 13.98 26.5149C13.7475 27.8368 13.7165 29.2053 13.8715 30.5583C14.011 31.9112 14.3674 33.2642 14.8789 34.5083C15.1269 35.1303 15.4369 35.7368 15.7778 36.2967C15.9328 36.5766 16.1653 36.8721 16.3668 37.152L16.9713 38.0073C18.7226 40.2312 20.939 42.0818 23.3568 43.7769C23.6048 43.9479 23.8373 44.1034 24.1007 44.2589C24.7982 44.7255 25.5266 45.192 26.2551 45.643C26.5496 45.8296 26.844 46.0007 27.1385 46.1873C28.4094 46.996 29.7268 47.8046 30.9977 48.6289C33.3691 50.2151 35.7094 51.9413 37.6158 54.0562C37.6933 54.1496 37.7708 54.2429 37.8482 54.3206L37.8792 54.3828Z" fill="#780000"/>
<path d="M72.3643 20.8076L72.3488 21.0875L72.1163 20.9009L72.3643 20.8076Z" fill="#142B6F"/>
<path d="M72.3643 20.8076L72.3488 21.0875L72.1163 20.9009L72.3643 20.8076Z" fill="#142B6F"/>
<path d="M76.8745 21.7407C76.549 21.8184 76.2701 21.8651 75.9756 21.8962C75.9446 21.8962 75.8981 21.9118 75.8826 21.8962C75.8671 21.8651 75.8516 21.8495 75.8361 21.834L75.7121 21.7407L75.4796 21.5541L74.5187 20.8076L74.4877 20.7765L72.7673 21.3986L73.0463 21.6163L73.2788 21.8029L73.4028 21.8962C73.4028 21.8962 73.4493 21.9118 73.4803 21.9273C73.5113 21.9273 73.5113 21.974 73.5113 22.0206C73.5423 22.3161 73.5888 22.596 73.5733 22.9226C73.2478 23.0159 72.9533 23.047 72.6743 23.0781C72.6433 23.0781 72.5968 23.0936 72.5813 23.0781C72.5658 23.0625 72.5503 23.0314 72.5348 23.0159L72.4263 22.9226L72.1784 22.736L71.2174 21.9895H71.1864L64.9404 24.2289L61.8871 25.333L40.7466 32.9532C40.8706 33.4042 40.8861 33.9018 40.7931 34.3372C40.7001 34.866 40.4521 35.3325 40.0647 35.7213C39.9717 35.4569 39.9407 35.2236 39.8787 34.9904C39.8012 34.7571 39.7857 34.5394 39.7237 34.3372C39.6462 33.9173 39.5222 33.5597 39.3982 33.2175C39.2742 32.8754 39.1192 32.5333 38.9178 32.1911C38.7163 31.849 38.4838 31.4913 38.0963 31.1337C38.3598 31.0093 38.6388 31.0404 38.9178 31.087C39.1812 31.1648 39.4447 31.2736 39.6617 31.4291C40.0027 31.6469 40.2817 31.9734 40.4831 32.3311L61.6701 24.6954L64.7079 23.6068L70.9384 21.3675L71.0005 20.0611C71.0005 19.8279 71.0469 19.6102 71.0159 19.3769C71.2019 19.1592 71.4654 18.957 71.7754 18.7393C72.0699 18.9881 72.3023 19.2214 72.4728 19.4546C72.4263 19.6724 72.4418 19.9056 72.4263 20.1234L72.3953 20.8232L72.1474 20.9165L72.3953 21.1031V20.8232L74.2707 20.1389L74.3482 18.8637C74.3482 18.6304 74.3792 18.4127 74.3482 18.1794C74.5497 17.9617 74.7977 17.744 75.1231 17.5418C75.4176 17.7907 75.6501 18.0239 75.8051 18.2572C75.7586 18.4749 75.7741 18.7082 75.7586 18.9415L75.7121 19.9212L76.3786 20.4499L76.6265 20.6365L76.7505 20.7299C76.7505 20.7299 76.797 20.7454 76.828 20.761C76.8435 20.761 76.8435 20.8076 76.859 20.8543C76.89 21.1342 76.9365 21.4297 76.921 21.7718L76.8745 21.7407Z" fill="#780000"/>
<path d="M13.8405 42.6572L14.5069 44.5233L9.76428 43.668L12.8641 39.9668L13.608 42.004L17.4052 40.6355L17.6377 41.2887L13.8405 42.6572Z" fill="#780000"/>
<path d="M41.5061 68.6123L42.374 67.7103C42.6375 67.4148 42.9939 67.0882 43.4124 66.6995C43.8154 66.3262 44.2649 65.8752 44.7918 65.4242C45.7837 64.5223 46.9772 63.527 48.2791 62.5006C48.2791 62.5006 56.726 55.7358 65.8083 52.0501C65.8083 52.0501 56.323 57.2132 49.0695 63.2471C50.8984 64.6933 53.5487 65.0821 55.672 63.8536C56.9274 63.1382 59.3143 59.6858 60.9727 60.4634C60.1822 60.0902 59.4383 59.748 58.8028 59.4526C57.9814 59.0793 57.2994 58.7528 56.819 58.5195C56.3385 58.2862 56.075 58.1462 56.075 58.1462L56.881 58.4417C57.3924 58.6128 58.1209 58.8616 59.0043 59.1571C59.7947 59.437 60.6627 59.7169 61.6081 60.0746C63.8399 58.7372 66.1338 57.6642 68.5826 56.7933C68.1331 56.4512 67.7302 56.1401 67.3582 55.8602C66.1803 55.0049 65.4363 54.4606 65.4363 54.4606L66.0408 54.7872C66.4283 54.9893 66.9707 55.2693 67.6062 55.6425C68.1021 55.938 68.6446 56.2023 69.2181 56.5911L70.3185 56.249C72.2868 55.6891 74.3637 55.3159 76.518 55.0204C76.1616 54.7405 75.8206 54.445 75.4951 54.2273C74.8597 53.7608 74.3327 53.372 73.9607 53.1076C73.7747 52.9677 73.6197 52.8744 73.5267 52.7966L73.3718 52.6877L73.5423 52.7811C73.6507 52.8433 73.8212 52.921 74.0227 53.0454C74.4257 53.2787 75.0146 53.6053 75.7276 54.0096C76.1771 54.2895 76.673 54.6006 77.2 54.9271C77.727 54.8338 78.2694 54.8183 78.8119 54.7716L79.9898 54.6472C80.3928 54.6161 80.7802 54.6006 81.1677 54.5695C81.5707 54.5384 81.9581 54.5072 82.3611 54.4761C82.7641 54.445 83.1516 54.445 83.5545 54.4139C83.6785 54.4139 84.035 54.3828 84.4845 54.3673C84.7169 54.3673 84.9804 54.3362 85.2594 54.3206C85.5384 54.3206 85.8174 54.3206 86.0963 54.3206C87.2278 54.3051 88.3282 54.2584 88.3437 54.1185C88.3437 54.1185 88.4057 53.232 87.8787 51.7702C87.3363 50.3084 86.2048 48.2712 83.477 46.2962C82.6091 46.2495 81.6637 46.1873 80.6562 46.2495C80.1603 46.2806 79.6488 46.2962 79.1528 46.3273C78.6414 46.3584 78.1299 46.4517 77.6185 46.5139C76.9985 46.6072 76.394 46.6694 75.8051 46.8249C75.2161 46.9649 74.6427 47.1048 74.1002 47.2603C73.5578 47.4003 73.0463 47.618 72.5658 47.7891C72.0854 47.9757 71.6514 48.1312 71.2484 48.3334C70.458 48.7222 69.838 49.0643 69.435 49.3131C69.0166 49.5775 68.8151 49.7486 68.8151 49.7486C68.8151 49.7486 69.0011 49.5619 69.3576 49.2665C69.714 48.9865 70.272 48.5978 70.9849 48.1312C71.7134 47.6647 72.6123 47.2448 73.6507 46.7783C74.1622 46.5761 74.7202 46.3739 75.2936 46.1873C75.5881 46.094 75.8826 46.0007 76.1771 45.9074C76.4715 45.8141 76.7815 45.7519 77.076 45.6741C77.7579 45.5186 78.4709 45.3475 79.1684 45.2231C79.8658 45.1298 80.5632 45.0365 81.2452 44.9588C80.6407 44.6633 79.9743 44.3678 79.2613 44.0879C78.5329 43.8235 77.7579 43.6058 76.9055 43.3881C76.0686 43.1548 75.1386 43.046 74.1777 42.906C73.2013 42.7816 72.1628 42.766 71.0624 42.7349C70.179 43.1548 69.3111 43.5747 68.4896 44.0568C65.6998 45.6741 63.6385 47.8513 62.507 49.4997C61.9491 50.3551 61.5771 51.0082 61.3601 51.537C61.1431 52.0346 61.0501 52.3145 61.0501 52.3145C61.0501 52.3145 61.0966 52.0346 61.2516 51.537C61.3911 51.0238 61.6546 50.3395 62.1041 49.4842C62.972 47.7735 64.7389 45.4875 67.3427 43.5747C67.6372 43.357 67.9472 43.1393 68.2571 42.9215C67.4977 43.0304 66.7227 43.1548 65.9168 43.3103C65.1264 43.4969 64.3049 43.6991 63.468 43.9479C61.4996 44.5855 59.5313 45.4097 57.7179 46.4672C57.2219 47.0426 56.8035 47.6958 56.416 48.3023C55.827 49.2354 55.4241 50.1995 55.1141 51.0549C54.8351 51.9413 54.6646 52.7344 54.6026 53.3876C54.4941 54.7094 54.6956 55.4714 54.6956 55.4714C54.6956 55.4714 54.3391 54.8183 54.1841 53.5742C54.1066 52.9521 54.1221 52.1901 54.2461 51.3348C54.3081 50.8993 54.3856 50.4484 54.5096 49.9663C54.6336 49.4997 54.8041 49.0176 55.0056 48.52L55.1606 48.1623C55.1606 48.1623 52.3243 49.9196 49.643 53.6364C49.612 53.6675 49.5965 53.6986 49.5655 53.7452C49.5035 53.8385 49.426 53.9318 49.364 54.0096C47.7831 56.2023 46.2022 58.7838 47.4111 61.3343C46.0317 62.3451 44.7608 63.3404 43.7069 64.2268C43.1644 64.6778 42.684 65.1288 42.25 65.502C41.816 65.8752 41.4441 66.2174 41.1496 66.5128C40.5606 67.0882 40.2197 67.4304 40.2197 67.4304L37.1199 70.8828C37.1199 70.8828 37.1819 72.7178 37.1199 74.1019C37.1199 74.1019 39.2277 70.9294 41.4906 68.6745L41.5061 68.6123Z" fill="#003049"/>
</g>
<defs>
<clipPath id="clip0_281_1041">
<rect width="88.3901" height="81.1311" fill="white"/>
</clipPath>
</defs>
</svg>
