<svg width="61" height="61" viewBox="0 0 61 61" fill="none" xmlns="http://www.w3.org/2000/svg">
<path d="M56.5194 23.6379C56.4412 23.6045 56.363 23.5716 56.2843 23.5381C56.3359 23.4702 56.3869 23.4023 56.438 23.3343C60.3345 18.1475 56.0795 10.7939 49.6288 11.5677C49.5443 11.5778 49.4597 11.5879 49.3751 11.5985C49.3858 11.5141 49.3959 11.4297 49.406 11.3454C50.1815 4.90931 42.8112 0.663907 37.6127 4.55161C37.5446 4.60256 37.4765 4.6535 37.4084 4.70498C37.3749 4.62644 37.3419 4.54843 37.3084 4.47041C34.7549 -1.49014 26.2442 -1.49014 23.691 4.47041C23.6574 4.54842 23.6245 4.62643 23.591 4.70498C23.5229 4.6535 23.4548 4.60256 23.3867 4.55161C18.1881 0.663907 10.8178 4.90929 11.5934 11.3454C11.6035 11.4292 11.6136 11.5136 11.6242 11.5985C11.5397 11.5879 11.4551 11.5778 11.3705 11.5677C4.92045 10.794 0.665413 18.1482 4.56194 23.3343C4.613 23.4023 4.66406 23.4702 4.71565 23.5381C4.63693 23.5716 4.55875 23.6045 4.48055 23.6379C-1.49352 26.1857 -1.49352 34.677 4.48055 37.2246C4.55874 37.258 4.63692 37.2909 4.71565 37.3243C4.66406 37.3922 4.61299 37.4602 4.56194 37.5281C0.664868 42.715 4.92042 50.0686 11.3711 49.2947C11.4551 49.2847 11.5397 49.2746 11.6248 49.264C11.6142 49.3483 11.604 49.4327 11.5939 49.5171C10.8185 55.9531 18.1888 60.1985 23.3873 56.3108C23.4553 56.2599 23.5234 56.2089 23.5915 56.1575C23.625 56.236 23.658 56.314 23.6915 56.392C26.2451 62.3526 34.7557 62.3526 37.309 56.392C37.3425 56.314 37.3755 56.236 37.409 56.1575C37.477 56.2089 37.5451 56.2599 37.6132 56.3108C42.8118 60.1991 50.1821 55.9532 49.4065 49.5171C49.3964 49.4333 49.3863 49.3489 49.3757 49.2645C49.4603 49.2751 49.5448 49.2852 49.6294 49.2953C56.08 50.069 60.3351 42.7154 56.4385 37.5286C56.3875 37.4607 56.3364 37.3928 56.2848 37.3249C56.3635 37.2914 56.4417 37.2585 56.5199 37.2251C62.4934 34.6773 62.4934 26.1854 56.5194 23.6371L56.5194 23.6379ZM27.0037 42.9548L14.4407 30.4425L19.9882 24.9076L26.9924 31.896L41.0116 17.9086L46.5596 23.4435L27.0037 42.9548Z" fill="#780000"/>
</svg>
