<svg width="73" height="70" viewBox="0 0 73 70" fill="none" xmlns="http://www.w3.org/2000/svg">
<path d="M36.5 0C46.1803 0 55.4649 3.68724 62.3093 10.2513C69.1547 16.8149 73 25.7171 73 35C73 44.2829 69.1547 53.1855 62.3093 59.7487C55.4645 66.3128 46.1807 70 36.5 70C30.0932 70 23.7988 68.383 18.25 65.3109C12.7012 62.2388 8.09367 57.8207 4.89005 52.5C1.68628 47.1792 0 41.1436 0 35C0 25.7175 3.84526 16.8145 10.6907 10.2513C17.5355 3.68724 26.8193 0 36.5 0ZM18.5574 38.0724L32.389 51.3355C33.4872 52.3887 35.0878 52.7999 36.5881 52.4144C38.0879 52.0289 39.2596 50.9053 39.6615 49.4667C40.0635 48.0286 39.6347 46.4938 38.5364 45.4407L31.8895 39.1259H51.3772C52.9257 39.1259 54.3563 38.3339 55.1308 37.0479C55.9047 35.7625 55.9047 34.1783 55.1308 32.8924C54.3562 31.6064 52.9257 30.8144 51.3772 30.8144H31.9828L38.522 24.5366C39.6203 23.4835 40.0491 21.9487 39.6471 20.5106C39.2451 19.0719 38.0733 17.9483 36.5737 17.5629C35.0733 17.1774 33.4728 17.5886 32.3751 18.6418L18.5435 31.9049C17.6923 32.7227 17.2383 33.8452 17.2909 34.9997V35.1323C17.2882 36.2353 17.7449 37.2931 18.5585 38.0723L18.5574 38.0724Z" fill="#003049"/>
</svg>
