<svg width="116" height="116" viewBox="0 0 116 116" fill="none" xmlns="http://www.w3.org/2000/svg">
<path d="M116 58C116 90.0325 90.0325 116 58 116C25.9675 116 0 90.0325 0 58C0 25.9675 25.9675 0 58 0C90.0325 0 116 25.9675 116 58Z" fill="#003049"/>
<path d="M45.2689 49.1C45.2689 46.9 46.2689 45.0833 48.2689 43.65C50.2689 42.1833 53.2356 41.45 57.1689 41.45C64.7689 41.45 68.5689 44.1 68.5689 49.4C68.5689 51.5667 67.6689 53.3667 65.8689 54.8C64.1023 56.2 61.5523 57.1833 58.2189 57.75V57.85C62.3523 58.15 65.4023 59.1167 67.3689 60.75C69.3356 62.3833 70.3189 64.5 70.3189 67.1C70.3189 70.3 69.0189 72.8333 66.4189 74.7C63.8523 76.5667 60.2689 77.5 55.6689 77.5C53.8689 77.5 52.1856 77.3 50.6189 76.9C49.0856 76.5 47.7023 75.7167 46.4689 74.55C45.2689 73.35 44.6689 71.9333 44.6689 70.3C44.6689 68.6667 45.0523 67.4 45.8189 66.5C46.6189 65.6 47.7023 65.15 49.0689 65.15C50.4356 65.15 51.5189 65.5167 52.3189 66.25C53.1189 66.95 53.5189 67.8 53.5189 68.8C53.5189 69.7667 53.3856 70.6 53.1189 71.3H51.5689C51.3689 71.8333 51.2689 72.3833 51.2689 72.95C51.2689 75.3167 52.6689 76.5 55.4689 76.5C57.4356 76.5 58.7689 75.75 59.4689 74.25C60.2023 72.75 60.5689 70.5833 60.5689 67.75C60.5689 64.9167 60.2189 62.8667 59.5189 61.6C58.8523 60.3 57.8523 59.3167 56.5189 58.65C55.3189 58.9167 53.8689 59.1333 52.1689 59.3L52.0189 58.2C54.9523 57.9 56.8689 57.2 57.7689 56.1C58.7023 55 59.1689 53.05 59.1689 50.25C59.1689 47.4167 58.8856 45.4 58.3189 44.2C57.7856 42.9667 56.8689 42.35 55.5689 42.35C54.2689 42.35 53.3356 42.75 52.7689 43.55C52.2356 44.3167 51.9689 45.05 51.9689 45.75C51.9689 46.45 52.0689 47.0667 52.2689 47.6H53.7189C53.9856 48.3 54.1189 49.15 54.1189 50.15C54.1189 51.1167 53.7023 51.9667 52.8689 52.7C52.0356 53.4 50.9356 53.75 49.5689 53.75C48.2023 53.75 47.1356 53.3167 46.3689 52.45C45.6356 51.55 45.2689 50.4333 45.2689 49.1Z" fill="white"/>
</svg>
