<svg width="73" height="70" viewBox="0 0 73 70" fill="none" xmlns="http://www.w3.org/2000/svg">
<path d="M36.5 0C26.8197 0 17.5351 3.68724 10.6907 10.2513C3.84526 16.8149 0 25.7171 0 35C0 44.2829 3.84526 53.1855 10.6907 59.7487C17.5355 66.3128 26.8193 70 36.5 70C42.9068 70 49.2012 68.383 54.75 65.3109C60.2988 62.2388 64.9063 57.8207 68.11 52.5C71.3137 47.1792 73 41.1436 73 35C73 25.7175 69.1547 16.8145 62.3093 10.2513C55.4645 3.68724 46.1807 0 36.5 0ZM54.4426 38.0724L40.611 51.3355C39.5128 52.3887 37.9122 52.7999 36.4119 52.4144C34.9121 52.0289 33.7404 50.9053 33.3385 49.4667C32.9365 48.0286 33.3653 46.4938 34.4636 45.4407L41.1105 39.1259H21.6228C20.0743 39.1259 18.6437 38.3339 17.8692 37.0479C17.0953 35.7625 17.0953 34.1783 17.8692 32.8924C18.6438 31.6064 20.0743 30.8144 21.6228 30.8144H41.0172L34.478 24.5366C33.3797 23.4835 32.9509 21.9487 33.3529 20.5106C33.7549 19.0719 34.9267 17.9483 36.4263 17.5629C37.9267 17.1774 39.5272 17.5886 40.6249 18.6418L54.4565 31.9049C55.3077 32.7227 55.7617 33.8452 55.7091 34.9997V35.1323C55.7118 36.2353 55.2551 37.2931 54.4415 38.0723L54.4426 38.0724Z" fill="#003049"/>
</svg>
