<svg width="116" height="116" viewBox="0 0 116 116" fill="none" xmlns="http://www.w3.org/2000/svg">
<path d="M116 58C116 90.0325 90.0325 116 58 116C25.9675 116 0 90.0325 0 58C0 25.9675 25.9675 0 58 0C90.0325 0 116 25.9675 116 58Z" fill="#780000"/>
<path d="M45.9561 49.1C45.9561 46.8667 46.9227 45.0333 48.8561 43.6C50.7894 42.1667 53.6894 41.45 57.5561 41.45C61.4227 41.45 64.3894 42.1667 66.4561 43.6C68.5561 45.0333 69.6061 47.1833 69.6061 50.05C69.6061 50.9833 69.5227 51.8333 69.3561 52.6C69.1894 53.3333 68.8061 54.1167 68.2061 54.95C67.6394 55.75 67.0727 56.4667 66.5061 57.1C65.9727 57.7333 65.0394 58.5667 63.7061 59.6C61.7061 61.2 59.6061 62.8 57.4061 64.4C55.2061 65.9667 53.9227 66.8833 53.5561 67.15L50.5061 69.35H62.5061C64.8061 69.35 66.4394 68.85 67.4061 67.85C68.3727 66.85 69.0561 65.2833 69.4561 63.15H70.3061L69.8061 77H46.3061V71.2L51.3561 66.55C54.7894 63.4167 57.2227 60.6333 58.6561 58.2C60.0894 55.7333 60.8061 53.0333 60.8061 50.1C60.8061 47.1333 60.4894 45.1167 59.8561 44.05C59.2227 42.95 58.1561 42.4 56.6561 42.4C55.1561 42.4 54.1061 42.7833 53.5061 43.55C52.9061 44.3167 52.6061 45.05 52.6061 45.75C52.6061 46.45 52.7061 47.0667 52.9061 47.6H54.4061C54.6727 48.3 54.8061 49.15 54.8061 50.15C54.8061 51.1167 54.3894 51.9667 53.5561 52.7C52.7227 53.4 51.6227 53.75 50.2561 53.75C48.8894 53.75 47.8227 53.3167 47.0561 52.45C46.3227 51.55 45.9561 50.4333 45.9561 49.1Z" fill="white"/>
</svg>
